<?xml version="1.0" encoding="utf-8"?>
<!-- Generator: Adobe Illustrator 26.2.1, SVG Export Plug-In . SVG Version: 6.00 Build 0)  -->
<svg version="1.1" id="Capa_1" xmlns="http://www.w3.org/2000/svg" xmlns:xlink="http://www.w3.org/1999/xlink" x="0px" y="0px"
	 viewBox="0 0 1920 467.66" style="enable-background:new 0 0 1920 467.66;" xml:space="preserve">
<style type="text/css">
	.st0{fill:#9B1941;}
	.st1{fill:#FFD521;}
	.st2{fill:#1E1E1C;}
	.st3{fill:#FFCC27;}
	.st4{fill:#0075C9;}
	.st5{fill:#F18A00;}
	.st6{opacity:0.5;clip-path:url(#SVGID_00000172422651786661227980000004747011546472258955_);}
	.st7{opacity:0.5;}
	.st8{opacity:0.3;clip-path:url(#SVGID_00000022556429467388577790000002569332045053277621_);}
	.st9{fill:#DFEDF8;}
	.st10{fill:#003A70;}
	.st11{fill:#FAC123;}
	.st12{fill:#020203;stroke:#231F20;stroke-width:2;stroke-miterlimit:10;}
	.st13{opacity:0.5;clip-path:url(#SVGID_00000008142177769536195130000000205528457634258832_);}
	.st14{opacity:0.3;clip-path:url(#SVGID_00000168117697056589634180000008135391589000049286_);}
	.st15{opacity:0.3;clip-path:url(#SVGID_00000159441100768465681410000004722903714382852249_);}
	.st16{opacity:0.3;clip-path:url(#SVGID_00000070083104920474684210000013284345840390840759_);}
	.st17{fill:#020203;stroke:#231F20;stroke-width:1.4099;stroke-miterlimit:10;}
</style>
<g>
	<g>
		<g>
			<g>
				<g>
					<path class="st0" d="M1346.74,64.99l20.63,56.01h-14.91l-2.78-8.96h-20.63l-2.78,8.96h-14.91l20.79-56.01H1346.74z
						 M1339.2,78.31c-0.71,2.86-1.51,5.79-2.3,8.65c-1.19,4.2-3.33,10.79-4.6,14.99h14.2L1339.2,78.31z"/>
					<path class="st0" d="M1382.38,83.87c2.7-2.3,5.63-4.12,11.98-4.76V89.9l-4.05,0.63c-5.87,1.03-7.62,1.9-7.62,7.14v23.32h-12.22
						V79.5h11.9V83.87z"/>
					<path class="st0" d="M1398.56,64.91h12.06v9.44h-12.06V64.91z M1398.56,79.5h12.06v41.49h-12.06V79.5z"/>
					<path class="st0" d="M1418.08,79.58h35.46v9.36l-22.05,22.53h22.05v9.52h-37.84v-9.2l22.37-22.85h-19.99V79.58z"/>
					<path class="st0" d="M1500.27,100.21c0,10.47-6.03,21.97-22.21,21.97c-11.66,0-22.29-6.66-22.29-21.97
						c0-12.69,8.01-22.77,23.88-21.9C1496.54,79.27,1500.27,92.67,1500.27,100.21z M1470.12,92.04c-1.51,2.38-2.06,5.24-2.06,8.09
						c0,6.58,3.17,12.38,10,12.38c6.58,0,9.84-5.31,9.84-11.82c0-4.6-1.11-8.17-3.41-10.39c-2.54-2.38-5.39-2.46-7.14-2.3
						C1473.85,88.23,1471.79,89.42,1470.12,92.04z"/>
					<path class="st0" d="M1516.69,83.31c1.19-1.27,1.98-2.22,4.12-3.25c1.9-0.79,4.6-1.51,7.54-1.51c2.46,0,5.24,0.48,7.38,1.67
						c4.36,2.3,5.47,6.03,5.47,12.45v28.32h-12.14V97.67c0-3.73-0.08-5.08-0.55-6.19c-0.95-2.22-3.09-3.17-5.47-3.17
						c-6.43,0-6.43,5.16-6.43,10.31v22.37h-12.22V79.66h12.3V83.31z"/>
					<path class="st0" d="M1547.24,91.32c0.24-2.86,0.63-6.27,4.36-9.2c3.81-3.01,8.73-3.65,13.57-3.65
						c5.08,0,17.37,1.19,17.37,11.9v24.12c0,4.44,0.24,5.08,1.19,6.51h-11.98v-3.81c-3.09,2.3-6.58,4.92-12.69,4.92
						c-9.52,0-13.57-6.82-13.57-12.61c0-6.66,5.32-10.47,8.73-11.9c3.33-1.43,11.19-2.86,16.34-3.81v-2.22
						c-0.16-1.9-0.32-5.08-4.68-5.08c-5.39,0-6.11,3.33-6.43,4.84H1547.24z M1562.71,103.78c-2.06,0.79-5.24,1.98-5.24,5.16
						c0,1.98,1.74,4.2,4.6,4.2c1.51,0,2.94-0.55,4.21-1.35c4.05-2.54,4.2-6.35,4.28-10.63L1562.71,103.78z"/>
					<path class="st0" d="M1609.59,104.17c1.43,1.59,2.62,2.86,5.39,4.36c3.73,1.98,7.54,2.7,10.79,2.7
						c5.55,0,10.31-2.62,10.31-6.51c0-4.44-5.63-5.16-9.76-5.71c-3.09-0.4-6.19-0.79-9.2-1.43c-3.41-0.71-15.07-3.17-15.07-15.23
						c0-14.44,12.85-18.72,22.53-18.72c12.93,0,19.91,6.27,24.75,10.63l-10.31,7.38c-1.75-1.74-3.33-3.25-5.55-4.52
						c-1.98-1.11-5.55-2.46-9.12-2.46c-5.55,0-8.33,3.17-8.33,5.87c0,4.28,4.76,4.92,7.14,5.24c5.95,0.71,13.96,2.22,17.13,3.33
						c6.43,2.38,9.68,7.38,9.68,13.72c0,4.05-1.51,8.49-4.44,11.9c-5.08,5.87-13.17,7.54-21.02,7.54c-15.79,0-22.06-7.3-25.55-11.34
						L1609.59,104.17z"/>
					<path class="st0" d="M1656,67.6h12.14v12.93h8.01v7.46h-8.09v18.64c-0.08,2.54-0.08,4.68,3.17,4.68l4.36-0.16v9.52
						c-2.62,0.4-4.21,0.63-6.43,0.63c-4.21,0-8.81-0.24-11.42-4.05c-1.67-2.46-1.75-5.39-1.75-9.36V87.91h-6.03v-7.46h6.03V67.6z"/>
					<path class="st0" d="M1679.88,91.32c0.24-2.86,0.63-6.27,4.36-9.2c3.81-3.01,8.73-3.65,13.57-3.65
						c5.08,0,17.37,1.19,17.37,11.9v24.12c0,4.44,0.24,5.08,1.19,6.51h-11.98v-3.81c-3.09,2.3-6.58,4.92-12.69,4.92
						c-9.52,0-13.57-6.82-13.57-12.61c0-6.66,5.31-10.47,8.73-11.9c3.33-1.43,11.19-2.86,16.34-3.81v-2.22
						c-0.16-1.9-0.32-5.08-4.68-5.08c-5.39,0-6.11,3.33-6.43,4.84H1679.88z M1695.35,103.78c-2.06,0.79-5.23,1.98-5.23,5.16
						c0,1.98,1.74,4.2,4.6,4.2c1.51,0,2.93-0.55,4.21-1.35c4.05-2.54,4.2-6.35,4.28-10.63L1695.35,103.78z"/>
					<path class="st0" d="M1723.67,67.6h12.14v12.93h8.01v7.46h-8.09v18.64c-0.08,2.54-0.08,4.68,3.17,4.68l4.36-0.16v9.52
						c-2.62,0.4-4.2,0.63-6.43,0.63c-4.2,0-8.81-0.24-11.42-4.05c-1.67-2.46-1.75-5.39-1.75-9.36V87.91h-6.03v-7.46h6.03V67.6z"/>
					<path class="st0" d="M1786.98,110.44c-1.43,2.14-2.86,4.21-5,6.19c-3.57,3.33-8.97,5.87-15.63,5.87
						c-12.3,0-20.94-7.85-20.94-21.42c0-10,4.92-22.85,21.26-22.85c2.46,0,9.6,0.24,14.91,5.95c5.39,5.79,5.71,13.88,5.87,18.56
						h-29.59c-0.08,5.16,2.86,10.31,9.44,10.31c6.66,0,8.97-4.36,10.47-7.3L1786.98,110.44z M1774.85,95.13
						c-0.24-1.75-0.56-4.05-2.3-5.87c-1.51-1.51-3.81-2.3-5.95-2.3c-2.93,0-5,1.43-6.19,2.7c-1.67,1.82-2.06,3.73-2.46,5.47H1774.85
						z"/>
					<path class="st0" d="M1361.02,139.36v31.26c-0.08,5.39-0.16,10.79-3.25,15.87c-6.03,9.68-18.48,10.15-20.86,10.15
						c-4.2,0-9.2-1.03-13.01-3.01c-10.79-5.55-10.79-15.39-10.71-23.01v-31.26h14.12v34.91c0,2.86,0.08,5.24,1.03,6.98
						c1.75,2.94,5.55,3.81,9.04,3.81c9.52,0,9.52-6.51,9.6-10.87v-34.83H1361.02z"/>
					<path class="st0" d="M1379.66,157.69c1.19-1.27,1.98-2.22,4.12-3.25c1.9-0.79,4.6-1.51,7.54-1.51c2.46,0,5.24,0.48,7.38,1.67
						c4.36,2.3,5.47,6.03,5.47,12.45v28.32h-12.14v-23.32c0-3.73-0.08-5.08-0.55-6.19c-0.95-2.22-3.09-3.17-5.47-3.17
						c-6.43,0-6.43,5.16-6.43,10.31v22.37h-12.22v-41.33h12.3V157.69z"/>
					<path class="st0" d="M1410.52,139.28h12.06v9.44h-12.06V139.28z M1410.52,153.88h12.06v41.49h-12.06V153.88z"/>
					<path class="st0" d="M1426.15,153.96H1439c5.08,18.41,5.95,22.21,7.3,30.15c1.67-9.2,1.9-10.23,4.36-19.99l2.54-10.15h12.53
						l-13.41,41.41h-12.77L1426.15,153.96z"/>
					<path class="st0" d="M1507.15,184.82c-1.43,2.14-2.86,4.21-5,6.19c-3.57,3.33-8.96,5.87-15.63,5.87
						c-12.3,0-20.94-7.85-20.94-21.42c0-10,4.92-22.85,21.26-22.85c2.46,0,9.6,0.24,14.91,5.95c5.39,5.79,5.71,13.88,5.87,18.56
						h-29.59c-0.08,5.15,2.86,10.31,9.44,10.31c6.66,0,8.96-4.36,10.47-7.3L1507.15,184.82z M1495.02,169.51
						c-0.24-1.75-0.56-4.05-2.3-5.87c-1.51-1.51-3.81-2.3-5.95-2.3c-2.94,0-5,1.43-6.19,2.7c-1.67,1.83-2.06,3.73-2.46,5.47H1495.02
						z"/>
					<path class="st0" d="M1524.45,158.24c2.7-2.3,5.63-4.12,11.98-4.76v10.79l-4.05,0.63c-5.87,1.03-7.62,1.9-7.62,7.14v23.32
						h-12.22v-41.49h11.9V158.24z"/>
					<path class="st0" d="M1543.81,181.41c3.33,3.25,7.46,5.71,12.06,5.71c2.94,0,7.38-0.95,7.38-4.05c0-1.43-0.87-1.98-1.59-2.38
						c-1.82-0.95-4.68-1.19-7.06-1.59c-1.83-0.32-3.73-0.71-5.55-1.27c-2.54-0.71-5.08-1.75-6.9-3.57
						c-1.82-1.83-3.09-4.68-3.09-7.77c0-6.82,5.87-13.88,17.45-13.88c9.76,0,15.63,4.21,18.48,6.19l-7.54,6.98
						c-3.89-3.01-7.54-4.13-10.39-4.13c-4.76,0-5.87,1.91-5.87,3.09c0,2.38,2.62,2.86,6.58,3.57c8.33,1.51,18.01,3.73,18.01,13.57
						c0,9.76-9.84,14.52-19.6,14.52c-11.5,0-17.45-5.55-20.07-8.01L1543.81,181.41z"/>
					<path class="st0" d="M1579.59,139.28h12.06v9.44h-12.06V139.28z M1579.59,153.88h12.06v41.49h-12.06V153.88z"/>
					<path class="st0" d="M1601.96,141.98h12.14v12.93h8.01v7.46h-8.09v18.64c-0.08,2.54-0.08,4.68,3.17,4.68l4.36-0.16v9.52
						c-2.62,0.4-4.21,0.63-6.43,0.63c-4.21,0-8.81-0.24-11.42-4.05c-1.67-2.46-1.75-5.39-1.75-9.36v-19.99h-6.03v-7.45h6.03V141.98z
						"/>
					<path class="st0" d="M1664.63,153.96l-14.6,44.74c-0.95,2.7-1.83,5.23-3.89,7.54c-2.85,3.09-5.63,3.25-8.81,3.33h-8.81v-9.68
						h4.29c1.98-0.08,5.08-0.08,5.08-3.01c0-1.03-0.32-2.06-0.56-2.93l-12.37-39.98h13.01l6.82,29.67l6.82-29.67H1664.63z"/>
				</g>
				<g>
					<path class="st0" d="M1284.28,194.27c0,0-2.14-2.38-5.69-6.22c-4.39-4.72-4.16-9.73-4.16-9.73V64.97l-42.9,0l0,90.65
						c-0.53,8.59-8.91,10.76-13.55,10.61c-6.65-0.2-10.52-3.95-10.52-10.35V64.97l-41.78,0c0,0-17.44,0.03-29.44,0.03
						c-22.87,0-44.45,3.52-51.75,22.55l-4.31-16.85c-1.06-3.35-4.66-5.72-8.24-5.72l-74.67,0c-1.09,0-1.49,0.35-0.94,1.11
						c0,0,2.03,1.93,5.71,6.16c5.11,5.84,3.11,13.63,3.11,13.63l-27.36,109.47l39.81,0l5.72-24.03l38.43,0l5.98,24.03
						c0,0,49.02,0,52.42,0c21.52,0,39.02-2.19,47.65-15.62c6.45,12.25,20.34,18,44.85,15.89c8.53-0.73,16.89-4.72,20.47-11.08
						l1.69,5.28c1.41,3.2,4.34,5.54,8.51,5.54h40.04C1284.49,195.35,1284.84,195.03,1284.28,194.27z M1029.33,147.56l13.25-53.53
						l13.3,53.53H1029.33z"/>
					<path class="st0" d="M1285.55,75.06c-2.66,0-4.82-2.11-4.82-4.82c0-2.65,2.11-4.82,4.83-4.82c2.75,0,4.82,2.2,4.8,4.83
						C1290.35,72.94,1288.27,75.06,1285.55,75.06z M1285.53,64.8c-2.94,0-5.44,2.31-5.44,5.45c0,3.23,2.6,5.45,5.44,5.45
						c3.08,0,5.45-2.4,5.47-5.42C1291.01,67.29,1288.7,64.8,1285.53,64.8z M1283.53,67.16h1.93c0.81,0.01,1.35,0.01,1.88,0.44
						c0.38,0.31,0.67,0.79,0.67,1.49c0,1.16-0.85,1.56-1.19,1.66l1.35,2.46h-1.29l-1.2-2.25h-1.01v2.25h-1.12V67.16z M1284.65,68.14
						v1.89h0.39c0.39,0,0.53-0.01,0.75-0.02c0.25-0.01,1.06-0.05,1.06-0.93c0-0.13-0.01-0.57-0.48-0.81
						c-0.24-0.12-0.53-0.13-1.2-0.13H1284.65z"/>
					<g>
						<path class="st1" d="M1083.44,92.68c-0.23,1.17-0.52,2.75-0.69,3.87l-7.47-6.93c-0.72-0.67,0.14-1.81,0.98-1.3L1083.44,92.68z
							"/>
						<path class="st1" d="M1082.39,102.9c-0.01,1.61,0.07,3.78,0.24,5.42l-14.47-9.42c-0.81-0.53-0.16-1.77,0.73-1.41
							L1082.39,102.9z"/>
						<path class="st1" d="M1085.73,119.09c-1.01-1.97-1.92-4.58-2.45-6.96l-19.84-4.47c-0.93-0.21-1.36,1.1-0.49,1.49
							L1085.73,119.09z"/>
						<path class="st1" d="M1086.34,120.21c6.71,12.26,20.87,17.15,33.3,21.46c12.11,4.16,22.52,7.77,22.52,17.1
							c0,2.49-1,4.69-3,6.5c-3.84,3.49-10.85,5.19-18.55,4.46c-4.35-0.41-8.91-2.66-8.91-2.66l-16.06,19.92
							c-0.64,0.79-1.87,0-1.42-0.91l11.01-22.14c0.13-0.26-0.19-0.51-0.42-0.32l-19.54,17c-0.76,0.66-1.82-0.33-1.22-1.13
							l15.14-20.12c0.17-0.22-0.09-0.51-0.33-0.36l-22.63,13.76c-0.84,0.51-1.7-0.62-0.98-1.29l18.9-17.54
							c0.19-0.18-0.01-0.48-0.24-0.39l-25,10.04c-0.9,0.36-1.54-0.88-0.73-1.41l22-14.32c0.22-0.14,0.07-0.48-0.18-0.42l-26.55,5.99
							c-0.93,0.21-1.36-1.1-0.49-1.49l24.57-10.73c0.22-0.1,0.14-0.43-0.1-0.41l-27.32,1.75c-0.95,0.06-1.16-1.3-0.24-1.54
							l26.27-6.73c0.23-0.06,0.21-0.4-0.03-0.42l-27.25-2.54c-0.94-0.09-0.94-1.46,0-1.54l27.32-2.55c0.23-0.02,0.25-0.34,0.03-0.4
							l-26.32-6.75c-0.92-0.24-0.7-1.6,0.24-1.54L1086.34,120.21z"/>
						<path class="st1" d="M1170.36,175.24c0,0,0.9-2.2,1.37-3.75l6.03,8.02c0.6,0.8-0.46,1.78-1.21,1.13L1170.36,175.24z"/>
						<path class="st1" d="M1173.14,165.22c0,0,0.5-3.63,0.59-5.63l12.8,11.88c0.72,0.67-0.14,1.8-0.98,1.29L1173.14,165.22z"/>
						<path class="st1" d="M1173.87,155.95c0,0,0.05-4.43-0.45-6.93l20.16,13.13c0.81,0.53,0.16,1.78-0.74,1.42L1173.87,155.95z"/>
						<path class="st1" d="M1173.19,147.74L1173.19,147.74c0,0-1.02-11.26-14.04-20.24c-6.8-4.69-15.1-7.82-22.4-10.61
							c-5.6-2.11-10.88-4.14-14.69-6.52c-4.25-2.7-6.25-5.6-6.25-9.11c0-2.58,0.85-4.72,2.55-6.39c2.93-2.87,8.27-4.16,15.48-4.1
							c7.74,0.06,15.95,3.54,15.95,3.54l16.36-20.24c0.64-0.79,1.87,0,1.42,0.91l-11.13,22.38c-0.1,0.21,0.16,0.41,0.33,0.26
							l19.76-17.2c0.75-0.66,1.81,0.33,1.21,1.13l-15.28,20.29c-0.14,0.19,0.08,0.43,0.28,0.31l22.73-13.82
							c0.85-0.51,1.71,0.63,0.99,1.3l-18.92,17.56c-0.17,0.16,0.01,0.44,0.23,0.36l25.05-10.06c0.9-0.36,1.55,0.89,0.74,1.42
							l-22.05,14.36c-0.2,0.13-0.07,0.44,0.16,0.39l26.65-6.01c0.93-0.21,1.36,1.1,0.49,1.49l-24.57,10.73
							c-0.22,0.1-0.14,0.43,0.1,0.41l27.28-1.75c0.95-0.06,1.17,1.31,0.25,1.54l-26.23,6.72c-0.23,0.06-0.21,0.4,0.03,0.42
							l27.22,2.54c0.94,0.09,0.94,1.46,0,1.55l-27.22,2.54c-0.24,0.02-0.27,0.36-0.03,0.42l26.23,6.72
							c0.92,0.24,0.71,1.61-0.25,1.54l-27.28-1.75c-0.24-0.02-0.32,0.31-0.1,0.41l24.57,10.73c0.87,0.38,0.44,1.7-0.49,1.49
							L1173.19,147.74z"/>
					</g>
				</g>
			</g>
			<g>
				<g>
					<path class="st2" d="M1006.57,271.4h5.6l-2.06,10.72h5.33l2.06-10.72h5.55l-2.06,10.72h4.23v5.97h-5.18l-1.27,6.55h4.96v5.97
						h-6.23l-1.74,9.14h-5.6l1.74-9.14h-5.33l-1.74,9.14h-5.6l1.74-9.14h-4.81v-5.97h5.97l1.27-6.55h-5.07v-5.97h6.18L1006.57,271.4
						z M1009,288.09l-1.27,6.55h5.39l1.37-6.55H1009z"/>
					<path class="st2" d="M1052.23,258.52h-9.41v-14.46h26.48v65.68h-17.07V258.52z"/>
					<path class="st2" d="M1137.67,296.8v1h-20.23c0,4.01,2.01,6.02,6.02,6.02c2.08,0,3.61-0.83,4.59-2.48h9.24
						c-0.74,3.03-2.39,5.33-4.96,6.92c-2.57,1.58-5.51,2.38-8.82,2.38c-4.65,0-8.42-1.27-11.33-3.8c-2.91-2.53-4.36-6.07-4.36-10.61
						c0-4.47,1.38-8,4.14-10.59c2.76-2.59,6.38-3.88,10.85-3.88c4.68,0,8.33,1.35,10.93,4.04
						C1136.37,288.49,1137.67,292.16,1137.67,296.8z M1117.6,292.26h11.14c-0.25-1.27-0.88-2.3-1.9-3.09
						c-1.02-0.79-2.2-1.19-3.54-1.19c-1.44,0-2.68,0.37-3.72,1.11C1118.54,289.83,1117.88,290.89,1117.6,292.26z"/>
					<path class="st2" d="M1151.66,282.65v3.49h0.11c1.97-2.92,4.86-4.38,8.66-4.38c3.49,0,6.06,0.99,7.71,2.98
						c1.65,1.99,2.48,4.75,2.48,8.26v16.74h-9.61v-13.2c0-0.07,0-0.34,0-0.82c0-0.48,0-0.79,0-0.95c0-0.16-0.01-0.46-0.03-0.9
						c-0.02-0.44-0.05-0.77-0.11-0.98c-0.05-0.21-0.13-0.51-0.24-0.9c-0.11-0.39-0.23-0.67-0.37-0.85c-0.14-0.18-0.33-0.4-0.55-0.66
						c-0.23-0.26-0.48-0.46-0.77-0.58c-0.28-0.12-0.62-0.24-1-0.34c-0.39-0.11-0.81-0.16-1.27-0.16c-3.35,0-5.02,2.09-5.02,6.28
						v14.05h-9.61v-27.09H1151.66z"/>
					<path class="st2" d="M1196.08,268.44c1.06-1.06,2.32-1.58,3.8-1.58c1.48,0,2.75,0.53,3.8,1.58c1.06,1.06,1.58,2.32,1.58,3.8
						c0,1.48-0.53,2.75-1.58,3.8c-1.06,1.06-2.32,1.58-3.8,1.58c-1.48,0-2.75-0.53-3.8-1.58c-1.06-1.06-1.58-2.32-1.58-3.8
						C1194.49,270.77,1195.02,269.5,1196.08,268.44z M1204.68,282.65v27.09h-9.61v-27.09H1204.68z"/>
					<path class="st2" d="M1220.63,282.65v3.49h0.11c1.97-2.92,4.86-4.38,8.66-4.38c3.49,0,6.06,0.99,7.71,2.98
						c1.65,1.99,2.48,4.75,2.48,8.26v16.74h-9.61v-13.2c0-0.07,0-0.34,0-0.82c0-0.48,0-0.79,0-0.95c0-0.16-0.01-0.46-0.03-0.9
						c-0.02-0.44-0.05-0.77-0.1-0.98c-0.05-0.21-0.13-0.51-0.24-0.9c-0.11-0.39-0.23-0.67-0.37-0.85c-0.14-0.18-0.33-0.4-0.55-0.66
						c-0.23-0.26-0.48-0.46-0.77-0.58c-0.28-0.12-0.62-0.24-1-0.34c-0.39-0.11-0.81-0.16-1.27-0.16c-3.35,0-5.02,2.09-5.02,6.28
						v14.05h-9.61v-27.09H1220.63z"/>
					<path class="st2" d="M1255.54,282.65v3.49h0.1c1.97-2.92,4.86-4.38,8.66-4.38c3.49,0,6.05,0.99,7.71,2.98
						c1.65,1.99,2.48,4.75,2.48,8.26v16.74h-9.61v-13.2c0-0.07,0-0.34,0-0.82c0-0.48,0-0.79,0-0.95c0-0.16-0.01-0.46-0.03-0.9
						c-0.02-0.44-0.05-0.77-0.11-0.98c-0.05-0.21-0.13-0.51-0.24-0.9c-0.1-0.39-0.23-0.67-0.37-0.85c-0.14-0.18-0.33-0.4-0.56-0.66
						s-0.48-0.46-0.77-0.58c-0.28-0.12-0.62-0.24-1-0.34c-0.39-0.11-0.81-0.16-1.27-0.16c-3.34,0-5.02,2.09-5.02,6.28v14.05h-9.61
						v-27.09H1255.54z"/>
					<path class="st2" d="M1283.55,285.66c3.15-2.6,7.01-3.91,11.59-3.91c4.58,0,8.44,1.3,11.59,3.91
						c3.15,2.61,4.73,6.13,4.73,10.56c0,4.44-1.58,7.95-4.73,10.54c-3.15,2.59-7.02,3.88-11.59,3.88c-4.54,0-8.4-1.29-11.57-3.88
						c-3.17-2.59-4.75-6.1-4.75-10.54C1278.83,291.79,1280.4,288.27,1283.55,285.66z M1299.66,291.87
						c-1.11-1.18-2.61-1.77-4.52-1.77s-3.41,0.59-4.52,1.77c-1.11,1.18-1.66,2.63-1.66,4.36c0,1.76,0.56,3.21,1.66,4.36
						c1.11,1.14,2.62,1.72,4.52,1.72s3.41-0.57,4.52-1.72c1.11-1.14,1.66-2.6,1.66-4.36
						C1301.33,294.5,1300.77,293.05,1299.66,291.87z"/>
					<path class="st2" d="M1322.61,282.65l6.49,13.89l6.44-13.89h10.77l-14.15,27.09h-6.13l-14.21-27.09H1322.61z"/>
					<path class="st2" d="M1378.32,282.65v27.09h-9.61v-3.01h-0.11c-0.81,1.3-1.95,2.28-3.43,2.93c-1.48,0.65-3.06,0.98-4.75,0.98
						c-3.94,0-7.21-1.42-9.8-4.25c-2.59-2.83-3.88-6.24-3.88-10.22c0-3.98,1.28-7.38,3.83-10.19c2.55-2.82,5.8-4.22,9.74-4.22
						c3.59,0,6.39,1.18,8.4,3.54v-2.64H1378.32z M1367.36,291.87c-1.11-1.18-2.61-1.77-4.51-1.77c-1.9,0-3.41,0.59-4.52,1.77
						c-1.11,1.18-1.66,2.63-1.66,4.36c0,1.76,0.55,3.21,1.66,4.36c1.11,1.14,2.61,1.72,4.52,1.72c1.9,0,3.41-0.57,4.51-1.72
						c1.11-1.14,1.66-2.6,1.66-4.36C1369.03,294.5,1368.47,293.05,1367.36,291.87z"/>
					<path class="st2" d="M1404.25,283.34v8.13c-1.73-1.27-3.38-1.9-4.96-1.9c-1.87,0-3.43,0.63-4.7,1.9
						c-1.27,1.27-1.9,2.83-1.9,4.7c0,1.94,0.63,3.53,1.9,4.78c1.27,1.25,2.89,1.87,4.86,1.87c1.87,0,3.47-0.62,4.81-1.85v8.13
						c-2.04,1.02-4.3,1.53-6.76,1.53c-4.08,0-7.56-1.35-10.43-4.04c-2.87-2.69-4.3-6.06-4.3-10.11c0-4.29,1.45-7.82,4.36-10.59
						c2.91-2.76,6.5-4.14,10.8-4.14C1400.24,281.75,1402.35,282.28,1404.25,283.34z"/>
					<path class="st2" d="M1411.22,268.44c1.06-1.06,2.32-1.58,3.8-1.58c1.48,0,2.75,0.53,3.8,1.58c1.06,1.06,1.58,2.32,1.58,3.8
						c0,1.48-0.53,2.75-1.58,3.8c-1.06,1.06-2.32,1.58-3.8,1.58c-1.48,0-2.75-0.53-3.8-1.58c-1.06-1.06-1.59-2.32-1.59-3.8
						C1409.64,270.77,1410.17,269.5,1411.22,268.44z M1419.83,282.65v27.09h-9.61v-27.09H1419.83z"/>
					<path class="st2" d="M1428.89,285.66c3.15-2.6,7.02-3.91,11.59-3.91s8.44,1.3,11.59,3.91c3.15,2.61,4.73,6.13,4.73,10.56
						c0,4.44-1.58,7.95-4.73,10.54c-3.15,2.59-7.02,3.88-11.59,3.88c-4.54,0-8.4-1.29-11.57-3.88c-3.17-2.59-4.75-6.1-4.75-10.54
						C1424.16,291.79,1425.73,288.27,1428.89,285.66z M1444.99,291.87c-1.11-1.18-2.61-1.77-4.52-1.77c-1.9,0-3.41,0.59-4.51,1.77
						c-1.11,1.18-1.66,2.63-1.66,4.36c0,1.76,0.56,3.21,1.66,4.36c1.11,1.14,2.61,1.72,4.51,1.72c1.9,0,3.41-0.57,4.52-1.72
						c1.11-1.14,1.66-2.6,1.66-4.36C1446.66,294.5,1446.1,293.05,1444.99,291.87z M1448.45,270.66l-9.03,7.97l-4.28-3.12l7.45-9.08
						L1448.45,270.66z"/>
					<path class="st2" d="M1470.74,282.65v3.49h0.1c1.97-2.92,4.86-4.38,8.66-4.38c3.49,0,6.05,0.99,7.71,2.98
						c1.65,1.99,2.48,4.75,2.48,8.26v16.74h-9.61v-13.2c0-0.07,0-0.34,0-0.82c0-0.48,0-0.79,0-0.95c0-0.16-0.01-0.46-0.03-0.9
						c-0.02-0.44-0.05-0.77-0.11-0.98c-0.05-0.21-0.13-0.51-0.24-0.9c-0.1-0.39-0.23-0.67-0.37-0.85c-0.14-0.18-0.33-0.4-0.56-0.66
						c-0.23-0.26-0.48-0.46-0.77-0.58c-0.28-0.12-0.62-0.24-1-0.34c-0.39-0.11-0.81-0.16-1.27-0.16c-3.34,0-5.02,2.09-5.02,6.28
						v14.05h-9.61v-27.09H1470.74z"/>
					<path class="st2" d="M1541.98,296.8v1h-20.23c0,4.01,2.01,6.02,6.02,6.02c2.08,0,3.61-0.83,4.59-2.48h9.24
						c-0.74,3.03-2.39,5.33-4.96,6.92s-5.51,2.38-8.82,2.38c-4.65,0-8.42-1.27-11.33-3.8c-2.91-2.53-4.36-6.07-4.36-10.61
						c0-4.47,1.38-8,4.14-10.59c2.76-2.59,6.38-3.88,10.85-3.88c4.68,0,8.33,1.35,10.93,4.04
						C1540.67,288.49,1541.98,292.16,1541.98,296.8z M1521.91,292.26h11.14c-0.25-1.27-0.88-2.3-1.9-3.09
						c-1.02-0.79-2.2-1.19-3.54-1.19c-1.44,0-2.68,0.37-3.72,1.11C1522.85,289.83,1522.19,290.89,1521.91,292.26z"/>
					<path class="st2" d="M1555.97,282.65v3.49h0.11c1.97-2.92,4.86-4.38,8.66-4.38c3.49,0,6.05,0.99,7.71,2.98
						c1.65,1.99,2.48,4.75,2.48,8.26v16.74h-9.61v-13.2c0-0.07,0-0.34,0-0.82c0-0.48,0-0.79,0-0.95c0-0.16-0.01-0.46-0.03-0.9
						c-0.02-0.44-0.05-0.77-0.11-0.98c-0.05-0.21-0.13-0.51-0.24-0.9c-0.11-0.39-0.23-0.67-0.37-0.85c-0.14-0.18-0.33-0.4-0.55-0.66
						c-0.23-0.26-0.48-0.46-0.77-0.58c-0.28-0.12-0.62-0.24-1-0.34c-0.39-0.11-0.81-0.16-1.27-0.16c-3.35,0-5.02,2.09-5.02,6.28
						v14.05h-9.61v-27.09H1555.97z"/>
					<path class="st2" d="M1622.25,278.69h-12.3v6.65h11.67v8.77h-11.67v6.87h12.3v8.77h-22.66v-39.82h22.66V278.69z"/>
					<path class="st2" d="M1651.29,278.69h-12.3v6.65h11.67v8.77h-11.67v6.87h12.3v8.77h-22.66v-39.82h22.66V278.69z"/>
					<path class="st2" d="M1659,300.24c1.2-1.2,2.66-1.8,4.38-1.8c1.72,0,3.19,0.6,4.38,1.8c1.2,1.2,1.8,2.66,1.8,4.38
						c0,1.69-0.6,3.14-1.8,4.36c-1.2,1.21-2.66,1.82-4.38,1.82c-1.73,0-3.19-0.61-4.38-1.82c-1.2-1.21-1.8-2.67-1.8-4.36
						C1657.21,302.9,1657.81,301.43,1659,300.24z"/>
					<path class="st2" d="M1699.98,269.92h10.35v22.39c0,3.24-0.26,5.96-0.77,8.16c-0.51,2.2-1.65,4.16-3.41,5.89
						c-2.99,2.96-7.39,4.44-13.2,4.44c-5.81,0-10.21-1.48-13.2-4.44c-1.76-1.72-2.9-3.69-3.41-5.89c-0.51-2.2-0.77-4.92-0.77-8.16
						v-22.39h10.35v20.97c0,1.27,0.03,2.32,0.08,3.17c0.05,0.85,0.21,1.79,0.48,2.85c0.26,1.06,0.63,1.9,1.11,2.53
						c0.47,0.63,1.17,1.17,2.09,1.61c0.92,0.44,2.01,0.66,3.27,0.66s2.36-0.22,3.27-0.66c0.91-0.44,1.61-0.98,2.09-1.61
						c0.48-0.63,0.84-1.48,1.11-2.53c0.26-1.06,0.42-2.01,0.47-2.85c0.05-0.85,0.08-1.9,0.08-3.17V269.92z"/>
					<path class="st2" d="M1741.07,269.92h10.35v22.39c0,3.24-0.26,5.96-0.77,8.16c-0.51,2.2-1.65,4.16-3.41,5.89
						c-2.99,2.96-7.39,4.44-13.2,4.44c-5.81,0-10.21-1.48-13.2-4.44c-1.76-1.72-2.9-3.69-3.41-5.89c-0.51-2.2-0.77-4.92-0.77-8.16
						v-22.39h10.35v20.97c0,1.27,0.03,2.32,0.08,3.17c0.05,0.85,0.21,1.79,0.48,2.85c0.26,1.06,0.63,1.9,1.11,2.53
						c0.48,0.63,1.17,1.17,2.09,1.61c0.92,0.44,2.01,0.66,3.27,0.66s2.36-0.22,3.27-0.66c0.92-0.44,1.61-0.98,2.09-1.61
						c0.47-0.63,0.84-1.48,1.11-2.53c0.26-1.06,0.42-2.01,0.48-2.85c0.05-0.85,0.08-1.9,0.08-3.17V269.92z"/>
					<path class="st2" d="M1759.29,300.24c1.2-1.2,2.66-1.8,4.38-1.8c1.72,0,3.19,0.6,4.38,1.8c1.2,1.2,1.79,2.66,1.79,4.38
						c0,1.69-0.6,3.14-1.79,4.36c-1.2,1.21-2.66,1.82-4.38,1.82c-1.73,0-3.19-0.61-4.38-1.82c-1.2-1.21-1.79-2.67-1.79-4.36
						C1757.49,302.9,1758.09,301.43,1759.29,300.24z"/>
				</g>
				<g>
					<path class="st2" d="M1059.79,334.79v1.54h0.05c0.43-0.65,1.01-1.15,1.75-1.49c0.74-0.34,1.53-0.5,2.36-0.5
						c1.98,0,3.62,0.72,4.92,2.15c1.3,1.43,1.95,3.15,1.95,5.15s-0.64,3.7-1.92,5.11c-1.28,1.41-2.91,2.11-4.89,2.11
						c-1.8,0-3.21-0.58-4.22-1.75v8.09h-4.83v-20.4H1059.79z M1065,339.42c-0.56-0.59-1.31-0.89-2.27-0.89
						c-0.96,0-1.71,0.3-2.27,0.89c-0.56,0.59-0.84,1.32-0.84,2.19c0,0.88,0.28,1.61,0.84,2.19c0.56,0.58,1.31,0.86,2.27,0.86
						c0.95,0,1.71-0.29,2.27-0.86c0.56-0.57,0.84-1.3,0.84-2.19C1065.83,340.74,1065.56,340.01,1065,339.42z"/>
					<path class="st2" d="M1074.58,336.3c1.58-1.31,3.52-1.96,5.82-1.96c2.3,0,4.24,0.65,5.82,1.96c1.58,1.31,2.37,3.08,2.37,5.31
						c0,2.23-0.79,3.99-2.37,5.29c-1.58,1.3-3.53,1.95-5.82,1.95c-2.28,0-4.22-0.65-5.81-1.95c-1.59-1.3-2.39-3.06-2.39-5.29
						C1072.2,339.37,1072.99,337.61,1074.58,336.3z M1082.67,339.42c-0.56-0.59-1.31-0.89-2.27-0.89c-0.96,0-1.71,0.3-2.27,0.89
						c-0.56,0.59-0.84,1.32-0.84,2.19c0,0.88,0.28,1.61,0.84,2.19c0.56,0.58,1.31,0.86,2.27,0.86c0.95,0,1.71-0.29,2.27-0.86
						c0.56-0.57,0.84-1.3,0.84-2.19C1083.51,340.74,1083.23,340.01,1082.67,339.42z"/>
					<path class="st2" d="M1095.6,334.79v2.23h0.05c0.9-1.61,2.37-2.42,4.41-2.42h0.93v4.64c-0.53-0.3-1.21-0.45-2.04-0.45
						c-1.26,0-2.13,0.36-2.61,1.07c-0.49,0.72-0.73,1.73-0.73,3.04v5.49h-4.83v-13.61H1095.6z"/>
					<path class="st2" d="M1125.88,341.9v0.5h-10.16c0,2.02,1.01,3.03,3.03,3.03c1.04,0,1.81-0.42,2.31-1.25h4.64
						c-0.37,1.52-1.2,2.68-2.49,3.48c-1.29,0.8-2.77,1.19-4.43,1.19c-2.33,0-4.23-0.64-5.69-1.91c-1.46-1.27-2.19-3.05-2.19-5.33
						c0-2.25,0.69-4.02,2.08-5.32c1.39-1.3,3.21-1.95,5.45-1.95c2.35,0,4.18,0.68,5.49,2.03
						C1125.22,337.72,1125.88,339.56,1125.88,341.9z M1115.79,339.61h5.6c-0.12-0.64-0.44-1.15-0.96-1.55
						c-0.51-0.4-1.11-0.6-1.78-0.6c-0.73,0-1.35,0.19-1.87,0.56C1116.27,338.39,1115.94,338.92,1115.79,339.61z"/>
					<path class="st2" d="M1132.91,334.79v1.75h0.05c0.99-1.47,2.44-2.2,4.35-2.2c1.75,0,3.04,0.5,3.87,1.5
						c0.83,1,1.25,2.38,1.25,4.15v8.41h-4.83v-6.63c0-0.03,0-0.17,0-0.41c0-0.24,0-0.4,0-0.48s0-0.23-0.01-0.45
						c-0.01-0.22-0.03-0.38-0.05-0.49c-0.03-0.11-0.07-0.26-0.12-0.45c-0.05-0.19-0.11-0.34-0.19-0.42
						c-0.07-0.09-0.16-0.2-0.28-0.33c-0.12-0.13-0.24-0.23-0.39-0.29c-0.14-0.06-0.31-0.12-0.5-0.17c-0.19-0.05-0.41-0.08-0.64-0.08
						c-1.68,0-2.52,1.05-2.52,3.16v7.06h-4.83v-13.61H1132.91z"/>
					<path class="st2" d="M1155.44,335.13v4.09c-0.87-0.64-1.7-0.96-2.49-0.96c-0.94,0-1.72,0.32-2.36,0.96
						c-0.64,0.64-0.96,1.42-0.96,2.36c0,0.97,0.32,1.77,0.96,2.4c0.64,0.63,1.45,0.94,2.44,0.94c0.94,0,1.74-0.31,2.41-0.93v4.09
						c-1.03,0.51-2.16,0.77-3.4,0.77c-2.05,0-3.8-0.68-5.24-2.03c-1.44-1.35-2.16-3.05-2.16-5.08c0-2.16,0.73-3.93,2.19-5.32
						c1.46-1.39,3.27-2.08,5.42-2.08C1153.42,334.33,1154.48,334.6,1155.44,335.13z"/>
					<path class="st2" d="M1158.94,327.65c0.53-0.53,1.17-0.8,1.91-0.8c0.74,0,1.38,0.27,1.91,0.8c0.53,0.53,0.8,1.17,0.8,1.91
						c0,0.74-0.27,1.38-0.8,1.91c-0.53,0.53-1.17,0.8-1.91,0.8c-0.74,0-1.38-0.27-1.91-0.8c-0.53-0.53-0.8-1.17-0.8-1.91
						C1158.14,328.81,1158.41,328.18,1158.94,327.65z M1163.26,334.79v13.61h-4.83v-13.61H1163.26z"/>
					<path class="st2" d="M1171.28,334.79v1.7h0.05c1.08-1.43,2.51-2.15,4.3-2.15c2.16,0,3.7,0.87,4.64,2.6
						c0.46-0.83,1.11-1.47,1.94-1.92c0.83-0.45,1.72-0.68,2.68-0.68c3.1,0,4.64,1.8,4.64,5.39v8.68h-4.83v-6.5
						c0-0.44,0-0.76-0.01-0.96c-0.01-0.19-0.04-0.5-0.11-0.93c-0.06-0.42-0.16-0.74-0.28-0.95c-0.12-0.21-0.32-0.41-0.6-0.6
						c-0.27-0.19-0.61-0.28-0.99-0.28c-0.43,0-0.79,0.08-1.09,0.25c-0.3,0.17-0.53,0.36-0.69,0.58c-0.16,0.22-0.28,0.52-0.36,0.89
						c-0.08,0.37-0.13,0.69-0.15,0.97s-0.03,0.61-0.03,1.02v6.5h-4.83v-6.5c0-0.35,0-0.63-0.01-0.82c-0.01-0.19-0.03-0.47-0.07-0.82
						c-0.04-0.35-0.1-0.64-0.19-0.85c-0.09-0.21-0.21-0.43-0.36-0.66c-0.15-0.23-0.36-0.4-0.62-0.5c-0.27-0.11-0.57-0.16-0.9-0.16
						s-0.64,0.05-0.9,0.16c-0.27,0.11-0.47,0.27-0.62,0.5c-0.15,0.23-0.27,0.45-0.36,0.66c-0.09,0.21-0.15,0.5-0.19,0.85
						c-0.04,0.35-0.06,0.63-0.07,0.82c-0.01,0.19-0.01,0.47-0.01,0.82v6.5h-4.83v-13.61H1171.28z"/>
					<path class="st2" d="M1207.57,334.79v13.61h-4.83v-1.51h-0.05c-0.41,0.65-0.98,1.14-1.72,1.47c-0.74,0.33-1.54,0.49-2.39,0.49
						c-1.98,0-3.62-0.71-4.92-2.13s-1.95-3.14-1.95-5.13c0-2,0.64-3.71,1.92-5.12c1.28-1.41,2.91-2.12,4.89-2.12
						c1.8,0,3.21,0.59,4.22,1.78v-1.33H1207.57z M1202.07,339.42c-0.56-0.59-1.31-0.89-2.27-0.89c-0.95,0-1.71,0.3-2.27,0.89
						c-0.56,0.59-0.83,1.32-0.83,2.19c0,0.88,0.28,1.61,0.83,2.19c0.56,0.58,1.31,0.86,2.27,0.86c0.96,0,1.71-0.29,2.27-0.86
						c0.56-0.57,0.84-1.3,0.84-2.19C1202.9,340.74,1202.62,340.01,1202.07,339.42z"/>
					<path class="st2" d="M1230.12,348.4v-1.51h-0.05c-0.41,0.65-0.98,1.14-1.72,1.47c-0.74,0.33-1.54,0.49-2.39,0.49
						c-1.98,0-3.62-0.71-4.92-2.13c-1.3-1.42-1.95-3.14-1.95-5.13c0-2,0.64-3.71,1.92-5.12c1.28-1.41,2.91-2.12,4.9-2.12
						c1.8,0,3.21,0.59,4.22,1.78v-9.74h4.83v22.02H1230.12z M1229.45,339.42c-0.56-0.59-1.31-0.89-2.27-0.89
						c-0.95,0-1.71,0.3-2.27,0.89c-0.56,0.59-0.84,1.32-0.84,2.19c0,0.88,0.28,1.61,0.84,2.19c0.56,0.58,1.31,0.86,2.27,0.86
						c0.95,0,1.71-0.29,2.27-0.86c0.56-0.57,0.83-1.3,0.83-2.19C1230.28,340.74,1230.01,340.01,1229.45,339.42z"/>
					<path class="st2" d="M1251.96,341.9v0.5h-10.16c0,2.02,1.01,3.03,3.03,3.03c1.04,0,1.81-0.42,2.31-1.25h4.64
						c-0.37,1.52-1.2,2.68-2.49,3.48c-1.29,0.8-2.77,1.19-4.43,1.19c-2.34,0-4.23-0.64-5.69-1.91c-1.46-1.27-2.19-3.05-2.19-5.33
						c0-2.25,0.69-4.02,2.08-5.32s3.21-1.95,5.45-1.95c2.35,0,4.18,0.68,5.49,2.03C1251.31,337.72,1251.96,339.56,1251.96,341.9z
						 M1241.88,339.61h5.6c-0.12-0.64-0.44-1.15-0.95-1.55c-0.51-0.4-1.11-0.6-1.78-0.6c-0.73,0-1.35,0.19-1.87,0.56
						C1242.35,338.39,1242.02,338.92,1241.88,339.61z"/>
					<path class="st2" d="M1268.09,326.37v22.02h-4.83v-22.02H1268.09z"/>
					<path class="st2" d="M1286.16,334.79v13.61h-4.83v-1.51h-0.05c-0.41,0.65-0.98,1.14-1.72,1.47c-0.74,0.33-1.54,0.49-2.39,0.49
						c-1.98,0-3.62-0.71-4.92-2.13s-1.95-3.14-1.95-5.13c0-2,0.64-3.71,1.92-5.12c1.28-1.41,2.91-2.12,4.89-2.12
						c1.8,0,3.21,0.59,4.22,1.78v-1.33H1286.16z M1280.66,339.42c-0.56-0.59-1.31-0.89-2.27-0.89c-0.95,0-1.71,0.3-2.27,0.89
						c-0.56,0.59-0.83,1.32-0.83,2.19c0,0.88,0.28,1.61,0.83,2.19c0.56,0.58,1.31,0.86,2.27,0.86c0.96,0,1.71-0.29,2.27-0.86
						c0.56-0.57,0.84-1.3,0.84-2.19C1281.49,340.74,1281.21,340.01,1280.66,339.42z"/>
					<path class="st2" d="M1299.98,335.21l-1.62,3.08c-0.83-0.44-1.7-0.66-2.6-0.66c-0.35,0-0.69,0.08-1.02,0.24
						c-0.33,0.16-0.49,0.39-0.49,0.69c0,0.12,0.03,0.24,0.08,0.35c0.05,0.11,0.13,0.2,0.24,0.28c0.11,0.08,0.21,0.15,0.32,0.2
						c0.1,0.05,0.24,0.1,0.41,0.15c0.17,0.05,0.3,0.08,0.4,0.09c0.1,0.02,0.23,0.04,0.4,0.07c0.17,0.03,0.28,0.05,0.33,0.07
						c2.64,0.53,3.95,1.88,3.95,4.03c0,1.66-0.63,2.92-1.9,3.78c-1.26,0.86-2.77,1.29-4.52,1.29c-1.96,0-3.79-0.52-5.49-1.57
						l1.75-3.37c0.53,0.37,1.16,0.69,1.89,0.97c0.73,0.27,1.37,0.41,1.94,0.41c0.37,0,0.72-0.09,1.04-0.27
						c0.32-0.18,0.48-0.43,0.48-0.77c0-0.19-0.05-0.37-0.15-0.52c-0.1-0.15-0.26-0.27-0.49-0.37c-0.23-0.1-0.45-0.17-0.65-0.23
						c-0.2-0.05-0.49-0.12-0.86-0.2c-0.37-0.08-0.66-0.15-0.88-0.2c-0.92-0.25-1.65-0.63-2.2-1.15c-0.55-0.52-0.82-1.33-0.82-2.43
						c0-1.06,0.3-1.97,0.9-2.72c0.6-0.75,1.34-1.29,2.22-1.62c0.88-0.33,1.83-0.49,2.88-0.49
						C1297.2,334.33,1298.69,334.63,1299.98,335.21z"/>
					<path class="st2" d="M1312,334.79h4.83v7.27c0,0.96,0.17,1.68,0.52,2.19c0.34,0.5,0.98,0.76,1.9,0.76
						c0.92,0,1.55-0.25,1.9-0.76c0.34-0.51,0.52-1.23,0.52-2.19v-7.27h4.83v8.2c0,3.91-2.41,5.86-7.24,5.86
						c-4.83,0-7.24-1.95-7.24-5.86V334.79z"/>
					<path class="st2" d="M1334.4,334.79v1.75h0.05c0.99-1.47,2.44-2.2,4.35-2.2c1.75,0,3.04,0.5,3.87,1.5
						c0.83,1,1.25,2.38,1.25,4.15v8.41h-4.83v-6.63c0-0.03,0-0.17,0-0.41c0-0.24,0-0.4,0-0.48s0-0.23-0.01-0.45
						c-0.01-0.22-0.03-0.38-0.05-0.49c-0.03-0.11-0.07-0.26-0.12-0.45c-0.05-0.19-0.11-0.34-0.19-0.42
						c-0.07-0.09-0.16-0.2-0.28-0.33c-0.12-0.13-0.24-0.23-0.39-0.29c-0.14-0.06-0.31-0.12-0.5-0.17c-0.19-0.05-0.41-0.08-0.64-0.08
						c-1.68,0-2.52,1.05-2.52,3.16v7.06h-4.83v-13.61H1334.4z"/>
					<path class="st2" d="M1347.61,327.65c0.53-0.53,1.17-0.8,1.91-0.8c0.74,0,1.38,0.27,1.91,0.8c0.53,0.53,0.8,1.17,0.8,1.91
						c0,0.74-0.26,1.38-0.8,1.91c-0.53,0.53-1.17,0.8-1.91,0.8c-0.74,0-1.38-0.27-1.91-0.8c-0.53-0.53-0.8-1.17-0.8-1.91
						C1346.82,328.81,1347.08,328.18,1347.61,327.65z M1351.94,334.79v13.61h-4.83v-13.61H1351.94z"/>
					<path class="st2" d="M1358.54,334.79l3.26,6.98l3.24-6.98h5.41l-7.11,13.61h-3.08l-7.14-13.61H1358.54z"/>
					<path class="st2" d="M1385.63,341.9v0.5h-10.16c0,2.02,1.01,3.03,3.03,3.03c1.04,0,1.81-0.42,2.31-1.25h4.64
						c-0.37,1.52-1.2,2.68-2.49,3.48c-1.29,0.8-2.77,1.19-4.43,1.19c-2.34,0-4.23-0.64-5.69-1.91c-1.46-1.27-2.19-3.05-2.19-5.33
						c0-2.25,0.69-4.02,2.08-5.32c1.39-1.3,3.21-1.95,5.45-1.95c2.35,0,4.18,0.68,5.49,2.03
						C1384.98,337.72,1385.63,339.56,1385.63,341.9z M1375.55,339.61h5.6c-0.12-0.64-0.44-1.15-0.95-1.55
						c-0.51-0.4-1.11-0.6-1.78-0.6c-0.73,0-1.35,0.19-1.87,0.56C1376.02,338.39,1375.69,338.92,1375.55,339.61z"/>
					<path class="st2" d="M1392.66,334.79v2.23h0.05c0.9-1.61,2.37-2.42,4.4-2.42h0.93v4.64c-0.53-0.3-1.21-0.45-2.04-0.45
						c-1.26,0-2.13,0.36-2.61,1.07c-0.49,0.72-0.73,1.73-0.73,3.04v5.49h-4.83v-13.61H1392.66z"/>
					<path class="st2" d="M1410.47,335.21l-1.62,3.08c-0.83-0.44-1.7-0.66-2.6-0.66c-0.35,0-0.69,0.08-1.02,0.24
						c-0.33,0.16-0.49,0.39-0.49,0.69c0,0.12,0.03,0.24,0.08,0.35c0.05,0.11,0.13,0.2,0.24,0.28c0.11,0.08,0.21,0.15,0.32,0.2
						c0.11,0.05,0.24,0.1,0.41,0.15c0.17,0.05,0.3,0.08,0.4,0.09c0.1,0.02,0.23,0.04,0.4,0.07c0.17,0.03,0.28,0.05,0.33,0.07
						c2.64,0.53,3.95,1.88,3.95,4.03c0,1.66-0.63,2.92-1.9,3.78c-1.26,0.86-2.77,1.29-4.52,1.29c-1.96,0-3.79-0.52-5.49-1.57
						l1.75-3.37c0.53,0.37,1.16,0.69,1.88,0.97c0.73,0.27,1.37,0.41,1.94,0.41c0.37,0,0.72-0.09,1.03-0.27
						c0.32-0.18,0.48-0.43,0.48-0.77c0-0.19-0.05-0.37-0.15-0.52c-0.1-0.15-0.26-0.27-0.49-0.37c-0.23-0.1-0.45-0.17-0.65-0.23
						c-0.2-0.05-0.49-0.12-0.86-0.2c-0.37-0.08-0.66-0.15-0.87-0.2c-0.92-0.25-1.65-0.63-2.2-1.15c-0.55-0.52-0.82-1.33-0.82-2.43
						c0-1.06,0.3-1.97,0.9-2.72c0.6-0.75,1.34-1.29,2.22-1.62c0.87-0.33,1.84-0.49,2.88-0.49
						C1407.68,334.33,1409.18,334.63,1410.47,335.21z"/>
					<path class="st2" d="M1413.97,327.65c0.53-0.53,1.17-0.8,1.91-0.8c0.74,0,1.38,0.27,1.91,0.8c0.53,0.53,0.8,1.17,0.8,1.91
						c0,0.74-0.26,1.38-0.8,1.91c-0.53,0.53-1.17,0.8-1.91,0.8c-0.74,0-1.38-0.27-1.91-0.8c-0.53-0.53-0.8-1.17-0.8-1.91
						C1413.17,328.81,1413.44,328.18,1413.97,327.65z M1418.29,334.79v13.61h-4.83v-13.61H1418.29z"/>
					<path class="st2" d="M1431.72,348.4v-1.51h-0.05c-0.41,0.65-0.98,1.14-1.72,1.47c-0.74,0.33-1.54,0.49-2.39,0.49
						c-1.98,0-3.62-0.71-4.92-2.13s-1.95-3.14-1.95-5.13c0-2,0.64-3.71,1.92-5.12c1.28-1.41,2.91-2.12,4.89-2.12
						c1.8,0,3.21,0.59,4.22,1.78v-9.74h4.83v22.02H1431.72z M1431.04,339.42c-0.56-0.59-1.31-0.89-2.27-0.89s-1.71,0.3-2.27,0.89
						c-0.56,0.59-0.84,1.32-0.84,2.19c0,0.88,0.28,1.61,0.84,2.19c0.56,0.58,1.31,0.86,2.27,0.86s1.71-0.29,2.27-0.86
						c0.56-0.57,0.84-1.3,0.84-2.19C1431.88,340.74,1431.6,340.01,1431.04,339.42z"/>
					<path class="st2" d="M1454.46,334.79v13.61h-4.83v-1.51h-0.05c-0.41,0.65-0.98,1.14-1.72,1.47c-0.74,0.33-1.54,0.49-2.39,0.49
						c-1.98,0-3.62-0.71-4.92-2.13c-1.3-1.42-1.95-3.14-1.95-5.13c0-2,0.64-3.71,1.92-5.12c1.28-1.41,2.91-2.12,4.89-2.12
						c1.8,0,3.21,0.59,4.22,1.78v-1.33H1454.46z M1448.95,339.42c-0.56-0.59-1.31-0.89-2.27-0.89c-0.95,0-1.71,0.3-2.27,0.89
						c-0.56,0.59-0.83,1.32-0.83,2.19c0,0.88,0.28,1.61,0.83,2.19c0.56,0.58,1.31,0.86,2.27,0.86c0.96,0,1.71-0.29,2.27-0.86
						c0.56-0.57,0.84-1.3,0.84-2.19C1449.79,340.74,1449.51,340.01,1448.95,339.42z"/>
					<path class="st2" d="M1467.91,348.4v-1.51h-0.05c-0.41,0.65-0.98,1.14-1.72,1.47c-0.74,0.33-1.54,0.49-2.39,0.49
						c-1.98,0-3.62-0.71-4.92-2.13c-1.3-1.42-1.95-3.14-1.95-5.13c0-2,0.64-3.71,1.92-5.12c1.28-1.41,2.91-2.12,4.9-2.12
						c1.8,0,3.21,0.59,4.22,1.78v-9.74h4.83v22.02H1467.91z M1467.23,339.42c-0.56-0.59-1.31-0.89-2.27-0.89
						c-0.95,0-1.71,0.3-2.27,0.89c-0.56,0.59-0.84,1.32-0.84,2.19c0,0.88,0.28,1.61,0.84,2.19c0.56,0.58,1.31,0.86,2.27,0.86
						c0.95,0,1.71-0.29,2.27-0.86c0.56-0.57,0.83-1.3,0.83-2.19C1468.07,340.74,1467.79,340.01,1467.23,339.42z"/>
					<path class="st2" d="M1489.75,341.9v0.5h-10.16c0,2.02,1.01,3.03,3.03,3.03c1.04,0,1.81-0.42,2.31-1.25h4.64
						c-0.37,1.52-1.2,2.68-2.49,3.48c-1.29,0.8-2.77,1.19-4.43,1.19c-2.34,0-4.23-0.64-5.69-1.91c-1.46-1.27-2.19-3.05-2.19-5.33
						c0-2.25,0.69-4.02,2.08-5.32c1.39-1.3,3.21-1.95,5.45-1.95c2.35,0,4.18,0.68,5.49,2.03
						C1489.09,337.72,1489.75,339.56,1489.75,341.9z M1479.66,339.61h5.6c-0.12-0.64-0.44-1.15-0.95-1.55
						c-0.51-0.4-1.11-0.6-1.78-0.6c-0.73,0-1.35,0.19-1.87,0.56C1480.14,338.39,1479.8,338.92,1479.66,339.61z"/>
					<path class="st2" d="M1502.56,335.21l-1.62,3.08c-0.83-0.44-1.7-0.66-2.6-0.66c-0.35,0-0.69,0.08-1.02,0.24
						c-0.33,0.16-0.49,0.39-0.49,0.69c0,0.12,0.03,0.24,0.08,0.35c0.05,0.11,0.13,0.2,0.24,0.28c0.11,0.08,0.21,0.15,0.32,0.2
						c0.11,0.05,0.24,0.1,0.41,0.15c0.17,0.05,0.3,0.08,0.4,0.09c0.1,0.02,0.23,0.04,0.4,0.07c0.17,0.03,0.28,0.05,0.33,0.07
						c2.64,0.53,3.95,1.88,3.95,4.03c0,1.66-0.63,2.92-1.9,3.78c-1.26,0.86-2.77,1.29-4.52,1.29c-1.96,0-3.79-0.52-5.49-1.57
						l1.75-3.37c0.53,0.37,1.16,0.69,1.88,0.97c0.73,0.27,1.37,0.41,1.94,0.41c0.37,0,0.72-0.09,1.04-0.27
						c0.32-0.18,0.48-0.43,0.48-0.77c0-0.19-0.05-0.37-0.15-0.52c-0.1-0.15-0.26-0.27-0.49-0.37c-0.23-0.1-0.45-0.17-0.65-0.23
						c-0.2-0.05-0.49-0.12-0.86-0.2c-0.37-0.08-0.66-0.15-0.88-0.2c-0.92-0.25-1.65-0.63-2.2-1.15c-0.55-0.52-0.82-1.33-0.82-2.43
						c0-1.06,0.3-1.97,0.9-2.72c0.6-0.75,1.34-1.29,2.22-1.62c0.88-0.33,1.84-0.49,2.88-0.49
						C1499.78,334.33,1501.27,334.63,1502.56,335.21z"/>
					<path class="st2" d="M1524.9,348.4v-1.51h-0.05c-0.41,0.65-0.98,1.14-1.72,1.47c-0.74,0.33-1.54,0.49-2.39,0.49
						c-1.98,0-3.62-0.71-4.92-2.13s-1.95-3.14-1.95-5.13c0-2,0.64-3.71,1.92-5.12c1.28-1.41,2.91-2.12,4.89-2.12
						c1.8,0,3.21,0.59,4.22,1.78v-9.74h4.83v22.02H1524.9z M1524.22,339.42c-0.56-0.59-1.31-0.89-2.27-0.89
						c-0.96,0-1.71,0.3-2.27,0.89c-0.56,0.59-0.84,1.32-0.84,2.19c0,0.88,0.28,1.61,0.84,2.19c0.56,0.58,1.31,0.86,2.27,0.86
						c0.95,0,1.71-0.29,2.27-0.86c0.56-0.57,0.84-1.3,0.84-2.19C1525.06,340.74,1524.78,340.01,1524.22,339.42z"/>
					<path class="st2" d="M1546.74,341.9v0.5h-10.16c0,2.02,1.01,3.03,3.03,3.03c1.04,0,1.81-0.42,2.31-1.25h4.64
						c-0.37,1.52-1.2,2.68-2.49,3.48c-1.29,0.8-2.77,1.19-4.43,1.19c-2.33,0-4.23-0.64-5.69-1.91c-1.46-1.27-2.19-3.05-2.19-5.33
						c0-2.25,0.69-4.02,2.08-5.32c1.39-1.3,3.21-1.95,5.45-1.95c2.35,0,4.18,0.68,5.49,2.03
						C1546.08,337.72,1546.74,339.56,1546.74,341.9z M1536.66,339.61h5.6c-0.12-0.64-0.44-1.15-0.96-1.55
						c-0.51-0.4-1.11-0.6-1.78-0.6c-0.72,0-1.35,0.19-1.87,0.56C1537.13,338.39,1536.8,338.92,1536.66,339.61z"/>
					<path class="st2" d="M1556.95,348.4l3.4-20.01h5.12l4.06,10.69l4.3-10.69h5.17l3.03,20.01h-5.2l-1.46-11.52h-0.05l-4.8,11.52
						h-2.07l-4.59-11.52h-0.05l-1.67,11.52H1556.95z"/>
					<path class="st2" d="M1589.43,328.39v20.01h-5.2v-20.01H1589.43z"/>
					<path class="st2" d="M1600.78,332.8v15.6h-5.2v-15.6h-4.3v-4.41h13.8v4.41H1600.78z"/>
					<path class="st2" d="M1620.55,346.54l-6.58-11.75h5.57l3.63,6.98l3.56-6.98h5.49l-10.9,20.4h-5.41L1620.55,346.54z"/>
					<path class="st2" d="M1655.57,329.51l-2.07,4.03c-1.06-0.88-2.21-1.33-3.45-1.33c-0.55,0-1.06,0.15-1.53,0.45
						c-0.47,0.3-0.7,0.71-0.7,1.22c0,0.35,0.15,0.67,0.44,0.95c0.29,0.28,0.57,0.48,0.82,0.58c0.26,0.11,0.6,0.23,1.05,0.37
						l1.33,0.4c1.56,0.46,2.77,1.11,3.64,1.95c0.87,0.84,1.3,2.01,1.3,3.52c0,2.42-0.69,4.22-2.07,5.39
						c-1.49,1.26-3.38,1.88-5.68,1.88c-2.51,0-4.85-0.76-7.03-2.28l2.23-4.19c1.57,1.38,3.11,2.07,4.62,2.07
						c0.67,0,1.26-0.17,1.76-0.52c0.51-0.35,0.76-0.85,0.76-1.5c0-0.9-0.84-1.6-2.52-2.1c-0.05-0.02-0.27-0.08-0.64-0.19
						c-0.95-0.27-1.71-0.51-2.25-0.74s-1.1-0.55-1.65-0.97c-0.55-0.41-0.94-0.94-1.17-1.58c-0.23-0.64-0.34-1.42-0.34-2.36
						c0-2.02,0.65-3.64,1.94-4.87c1.29-1.23,2.95-1.84,4.96-1.84c1.01,0,2.08,0.15,3.22,0.45
						C1653.68,328.61,1654.69,329.01,1655.57,329.51z"/>
					<path class="st2" d="M1664.04,338.77v9.63h-4.83v-9.63h-1.57v-3.98h1.57v-4.09h4.83v4.09h2.73v3.98H1664.04z"/>
					<path class="st2" d="M1683.19,334.79v13.61h-4.83v-1.51h-0.05c-0.41,0.65-0.98,1.14-1.72,1.47c-0.74,0.33-1.54,0.49-2.39,0.49
						c-1.98,0-3.62-0.71-4.92-2.13c-1.3-1.42-1.95-3.14-1.95-5.13c0-2,0.64-3.71,1.92-5.12c1.28-1.41,2.91-2.12,4.89-2.12
						c1.8,0,3.21,0.59,4.22,1.78v-1.33H1683.19z M1677.69,339.42c-0.56-0.59-1.31-0.89-2.27-0.89c-0.95,0-1.71,0.3-2.27,0.89
						c-0.56,0.59-0.83,1.32-0.83,2.19c0,0.88,0.28,1.61,0.83,2.19c0.56,0.58,1.31,0.86,2.27,0.86c0.96,0,1.71-0.29,2.27-0.86
						c0.56-0.57,0.84-1.3,0.84-2.19C1678.52,340.74,1678.25,340.01,1677.69,339.42z"/>
					<path class="st2" d="M1691.23,334.79v1.75h0.05c0.99-1.47,2.44-2.2,4.35-2.2c1.75,0,3.04,0.5,3.88,1.5
						c0.83,1,1.25,2.38,1.25,4.15v8.41h-4.83v-6.63c0-0.03,0-0.17,0-0.41c0-0.24,0-0.4,0-0.48s0-0.23-0.01-0.45
						c-0.01-0.22-0.03-0.38-0.05-0.49c-0.03-0.11-0.07-0.26-0.12-0.45c-0.05-0.19-0.12-0.34-0.19-0.42
						c-0.07-0.09-0.16-0.2-0.28-0.33c-0.12-0.13-0.24-0.23-0.38-0.29c-0.14-0.06-0.31-0.12-0.5-0.17c-0.19-0.05-0.41-0.08-0.64-0.08
						c-1.68,0-2.52,1.05-2.52,3.16v7.06h-4.83v-13.61H1691.23z"/>
					<path class="st2" d="M1709.25,338.77v9.63h-4.83v-9.63h-1.7v-3.98h1.7v-1.72c0-1.13,0.08-2.04,0.24-2.72
						c0.16-0.68,0.54-1.37,1.14-2.06c1.24-1.45,2.82-2.18,4.75-2.18c0.76,0,1.45,0.16,2.07,0.48v4.17c-0.71-0.3-1.27-0.45-1.7-0.45
						c-0.6,0-1.03,0.18-1.29,0.54c-0.26,0.36-0.39,0.94-0.39,1.74v2.2h3.37v3.98H1709.25z"/>
					<path class="st2" d="M1715.6,336.3c1.58-1.31,3.52-1.96,5.82-1.96s4.24,0.65,5.82,1.96c1.58,1.31,2.37,3.08,2.37,5.31
						c0,2.23-0.79,3.99-2.37,5.29c-1.58,1.3-3.52,1.95-5.82,1.95c-2.28,0-4.22-0.65-5.81-1.95c-1.59-1.3-2.39-3.06-2.39-5.29
						C1713.23,339.37,1714.02,337.61,1715.6,336.3z M1723.7,339.42c-0.56-0.59-1.31-0.89-2.27-0.89c-0.95,0-1.71,0.3-2.27,0.89
						c-0.56,0.59-0.83,1.32-0.83,2.19c0,0.88,0.28,1.61,0.83,2.19c0.56,0.58,1.31,0.86,2.27,0.86c0.95,0,1.71-0.29,2.27-0.86
						c0.56-0.57,0.84-1.3,0.84-2.19C1724.53,340.74,1724.25,340.01,1723.7,339.42z"/>
					<path class="st2" d="M1736.63,334.79v2.23h0.05c0.9-1.61,2.37-2.42,4.41-2.42h0.93v4.64c-0.53-0.3-1.21-0.45-2.04-0.45
						c-1.26,0-2.13,0.36-2.61,1.07c-0.49,0.72-0.73,1.73-0.73,3.04v5.49h-4.83v-13.61H1736.63z"/>
					<path class="st2" d="M1754.06,348.4v-1.51h-0.05c-0.41,0.65-0.98,1.14-1.72,1.47c-0.74,0.33-1.54,0.49-2.39,0.49
						c-1.98,0-3.62-0.71-4.92-2.13c-1.3-1.42-1.95-3.14-1.95-5.13c0-2,0.64-3.71,1.92-5.12c1.28-1.41,2.91-2.12,4.9-2.12
						c1.8,0,3.21,0.59,4.22,1.78v-9.74h4.83v22.02H1754.06z M1753.39,339.42c-0.56-0.59-1.31-0.89-2.27-0.89s-1.71,0.3-2.27,0.89
						c-0.56,0.59-0.84,1.32-0.84,2.19c0,0.88,0.28,1.61,0.84,2.19c0.56,0.58,1.31,0.86,2.27,0.86s1.71-0.29,2.27-0.86
						c0.56-0.57,0.83-1.3,0.83-2.19C1754.22,340.74,1753.94,340.01,1753.39,339.42z"/>
				</g>
				<g>
					<g>
						<g>
							<rect x="1054.45" y="362.44" class="st3" width="492.33" height="41.59"/>
						</g>
					</g>
					<g>
						<path class="st2" d="M1065.4,385.17v-2.98h11.45v2.98H1065.4z"/>
						<path class="st2" d="M1096.55,384.29c0,3.68-2.35,6.14-6.33,6.14c-3.46,0-6.22-1.83-6.22-5.89v-9.14h3.7v9.56
							c0,1.96,1,2.44,2.65,2.44c1.87,0,2.52-0.94,2.52-2.62v-9.37h3.68V384.29z"/>
						<path class="st2" d="M1098.82,390.1v-3.48h3.29v3.48H1098.82z"/>
						<path class="st2" d="M1114.48,379.78c-1.06-1.1-2.27-1.83-3.85-1.83c-1.5,0-2.19,0.87-2.19,1.56c0,0.79,0.63,1.17,1.87,1.35
							l1.62,0.23c3.83,0.54,5.41,1.71,5.41,4.23c0,3.1-2.48,5.12-6.68,5.12c-3.43,0-5.2-1.23-6.7-2.98l2.79-1.77
							c0.98,1.19,2.66,1.85,4.25,1.85c1.08,0,2.71-0.48,2.71-1.71c0-1.04-1.25-1.33-2.56-1.5l-1.69-0.23
							c-2.58-0.35-4.68-1.56-4.68-4.14c0-2.89,2.14-4.91,5.93-4.91c3.1,0,5.04,1.41,6.47,2.79L1114.48,379.78z"/>
						<path class="st2" d="M1119.39,390.1v-3.48h3.29v3.48H1119.39z"/>
						<path class="st2" d="M1138.84,390.1l-5.2-8.79v8.79h-3.54v-14.7h3.6l5.23,8.95v-8.95h3.52v14.7H1138.84z"/>
						<path class="st2" d="M1148,385.33v0.13c0,1.46,1,2.58,2.48,2.58c1.52,0,2.41-1.04,2.75-1.94l2.41,1.25
							c-1.23,2.06-3.16,3.14-5.41,3.14c-3.31,0-5.5-2.1-5.5-5.62c0-2.73,1.33-5.97,5.58-5.97c4.08,0,5.45,3.27,5.45,6.29v0.15H1148z
							 M1152.45,383.34c-0.04-1.21-0.85-2.15-2.16-2.15c-1.52,0-2.14,1.27-2.29,2.15H1152.45z"/>
						<path class="st2" d="M1169.33,390.1h-3.48l-1.6-7.24l-1.62,7.24h-3.52l-2.98-10.87h3.37l1.52,7.6l1.65-7.6h3.41l1.5,7.66
							l1.69-7.66h3.31L1169.33,390.1z"/>
						<path class="st2" d="M1180.75,382.34c-0.71-0.58-1.75-1.08-2.77-1.08c-0.69,0-1.5,0.23-1.5,0.83c0,0.52,0.5,0.69,1.77,0.94
							l0.77,0.14c2.35,0.44,3.92,1.39,3.92,3.41c0,2.71-2.87,3.79-5.14,3.79c-2.71,0-4.48-1.25-5.27-2.1l2.02-1.83
							c0.79,0.83,2,1.5,3.16,1.5c1.06,0,1.94-0.38,1.94-1.06c0-0.6-0.56-0.77-1.73-0.96l-0.98-0.17c-2.58-0.44-3.64-1.56-3.64-3.23
							c0-1.85,1.54-3.64,4.6-3.64c1.85,0,3.52,0.63,4.83,1.62L1180.75,382.34z"/>
						<path class="st2" d="M1200.5,390.1c-0.92,0-1.73-0.13-2.48-0.98c-1.23,0.75-2.5,1.13-3.91,1.13c-2.44,0-5.04-1.44-5.04-4.56
							c0-2.56,1.87-3.89,3.6-4.62c-0.46-0.75-0.96-1.6-0.96-2.52c0-2.54,2.29-3.23,3.77-3.23c1.52,0,3.58,0.79,3.58,3.18
							c0,0.73-0.29,2.4-2.75,3.41c0.4,0.63,0.79,1.19,1.19,1.77l0.81,1.14c0.33-0.73,0.42-0.89,0.71-2.19l2.6,0.96
							c-0.54,1.64-0.71,2.02-1.58,3.5c0.39,0.58,1.04,0.69,1.66,0.69h0.54v2.31H1200.5z M1193.96,383.21l-0.5,0.33
							c-0.69,0.46-1.21,1.17-1.21,2.04c0,0.79,0.56,2.19,2.19,2.19c0.77,0,1.39-0.31,2.06-0.69L1193.96,383.21z M1195.42,377.55
							c-0.52,0-1.04,0.29-1.04,0.88c0,0.48,0.25,0.81,0.71,1.58c0.62-0.33,1.35-0.88,1.35-1.56
							C1196.44,377.84,1195.96,377.55,1195.42,377.55z"/>
						<path class="st2" d="M1224.47,390.1h-3.79l-2.64-9.41l-2.66,9.41h-3.79l-3.73-14.7h3.68l2.16,10.12l2.66-10.12h3.27
							l2.75,10.12l2.15-10.12h3.66L1224.47,390.1z"/>
						<path class="st2" d="M1234.42,390.43c-2.83,0-5.83-1.54-5.83-5.83c0-2.75,1.67-5.7,5.72-5.7c4.56,0,5.95,3.16,5.95,5.77
							C1240.27,388.19,1238.07,390.43,1234.42,390.43z M1234.3,381.44c-1.21,0-2.48,0.92-2.48,3.18c0,1.81,0.77,3.25,2.64,3.25
							c1.77,0,2.56-1.48,2.56-3.1C1237.03,382.46,1236.05,381.44,1234.3,381.44z"/>
						<path class="st2" d="M1245.37,379.23v1.13c0.27-0.23,0.56-0.52,1.27-0.81c0.87-0.35,1.48-0.42,1.87-0.44v2.83l-1.06,0.17
							c-1.69,0.27-2,0.71-2,1.87v6.12h-3.18v-10.87H1245.37z"/>
						<path class="st2" d="M1249.98,390.1v-14.7h3.19v14.7H1249.98z"/>
						<path class="st2" d="M1262.79,390.1v-1.02c-1.19,1.21-2.31,1.31-2.89,1.31c-2.56,0-4.71-1.98-4.71-5.64
							c0-3.23,1.58-5.81,4.54-5.81c1.52,0,2.46,0.77,2.87,1.1v-4.64h3.1v14.7H1262.79z M1260.5,388.02c2.08,0,2.16-2.75,2.16-3.27
							c0-1.35-0.25-3.41-2-3.41c-1.71,0-2.23,1.85-2.23,3.39C1258.44,385.69,1258.65,388.02,1260.5,388.02z"/>
						<path class="st2" d="M1280.53,375.4c2.19,0,5.64,0.56,5.64,4.77c0,2.5-1.42,3.5-3.02,4.06l3.39,5.87h-4.04l-2.94-5.25h-2.29
							v5.25h-3.71v-14.7H1280.53z M1277.26,382.13h3.04c2.1,0,2.21-1.58,2.21-2.04c0-1.91-1.54-1.96-2.19-1.96h-3.06V382.13z"/>
						<path class="st2" d="M1290.88,385.33v0.13c0,1.46,1,2.58,2.48,2.58c1.52,0,2.41-1.04,2.75-1.94l2.41,1.25
							c-1.23,2.06-3.16,3.14-5.41,3.14c-3.31,0-5.5-2.1-5.5-5.62c0-2.73,1.33-5.97,5.58-5.97c4.08,0,5.45,3.27,5.45,6.29v0.15
							H1290.88z M1295.33,383.34c-0.04-1.21-0.85-2.15-2.16-2.15c-1.52,0-2.14,1.27-2.29,2.15H1295.33z"/>
						<path class="st2" d="M1303.31,379.23v1.06c0.23-0.35,1.12-1.31,3.04-1.31c3.12,0,4.73,2.64,4.73,5.66
							c0,3.5-1.83,5.66-4.73,5.66c-1.14,0-1.73-0.33-2.66-0.92v4.48h-3.25v-14.64H1303.31z M1305.75,388c1.64,0,2.25-1.83,2.25-3.52
							c0-0.73-0.23-3.23-2.16-3.23c-1.19,0-2.29,1.04-2.29,3.56C1303.54,386.62,1304.27,388,1305.75,388z"/>
						<path class="st2" d="M1318.25,390.43c-2.83,0-5.83-1.54-5.83-5.83c0-2.75,1.66-5.7,5.72-5.7c4.56,0,5.95,3.16,5.95,5.77
							C1324.1,388.19,1321.9,390.43,1318.25,390.43z M1318.13,381.44c-1.21,0-2.48,0.92-2.48,3.18c0,1.81,0.77,3.25,2.64,3.25
							c1.77,0,2.56-1.48,2.56-3.1C1320.85,382.46,1319.88,381.44,1318.13,381.44z"/>
						<path class="st2" d="M1329.2,379.23v1.13c0.27-0.23,0.56-0.52,1.27-0.81c0.87-0.35,1.48-0.42,1.87-0.44v2.83l-1.06,0.17
							c-1.69,0.27-2,0.71-2,1.87v6.12h-3.18v-10.87H1329.2z"/>
						<path class="st2" d="M1337.89,381.46v5.2c0,0.73,0.33,0.89,0.83,0.89c0.23,0,1.13-0.02,1.13-0.02v2.48
							c-0.21,0.04-0.85,0.17-2.02,0.17c-1.75,0-3.1-0.54-3.1-3.08v-5.66h-1.58v-1.96h1.58v-3.39h3.16v3.41h2.12v1.96H1337.89z"/>
						<path class="st2" d="M1345.09,386.6v2.85c0,2.46-0.94,3.62-3.31,4.25v-1.48c1.02-0.38,1.17-1.14,1.25-2.12h-1.27v-3.5H1345.09
							z"/>
						<path class="st2" d="M1361.88,386.08c0,3.23-2.83,4.25-5,4.25c-3.16,0-5-1.77-5-4.27c0-2.37,1.71-3.06,2.52-3.37
							c-0.56-0.33-1.94-1.16-1.94-3.18c0-1.73,1.19-3.77,4.45-3.77c2.46,0,4.37,1.33,4.37,3.87c0,2.1-1.31,2.73-2,3.06
							C1360.19,383,1361.88,383.77,1361.88,386.08z M1356.91,383.77c-0.83,0-1.65,0.66-1.65,2.02c0,1.48,0.81,2.04,1.6,2.04
							c1,0,1.64-0.62,1.64-2.04C1358.51,384.86,1358.07,383.77,1356.91,383.77z M1356.95,378.19c-0.96,0-1.37,0.77-1.37,1.64
							c0,1.06,0.46,1.79,1.35,1.79c0.94,0,1.31-0.75,1.31-1.6C1358.24,378.92,1357.76,378.19,1356.95,378.19z"/>
						<path class="st2" d="M1378.24,379.23l-3.83,11.74c-0.25,0.77-0.5,1.44-1.06,2.04c-0.67,0.71-1.31,0.83-2.27,0.83h-2.31v-2.56
							h1.37c0.87,0,1.08-0.42,1.08-0.79c0-0.29-0.06-0.52-0.23-1.04l-3.16-10.22h3.41l1.79,7.79l1.79-7.79H1378.24z"/>
						<path class="st2" d="M1381.89,385.33v0.13c0,1.46,1,2.58,2.48,2.58c1.52,0,2.41-1.04,2.75-1.94l2.41,1.25
							c-1.23,2.06-3.16,3.14-5.41,3.14c-3.31,0-5.5-2.1-5.5-5.62c0-2.73,1.33-5.97,5.58-5.97c4.08,0,5.45,3.27,5.45,6.29v0.15
							H1381.89z M1386.35,383.34c-0.04-1.21-0.85-2.15-2.16-2.15c-1.52,0-2.14,1.27-2.29,2.15H1386.35z"/>
						<path class="st2" d="M1397.83,390.1v-0.98c-0.85,0.56-1.66,1.27-3.33,1.27c-2.48,0-3.56-1.75-3.56-3.31
							c0-1.35,0.94-2.56,2.29-3.12c0.75-0.31,1.9-0.54,4.29-1v-0.6c0-0.38-0.06-1.31-1.23-1.31c-1.35,0-1.6,0.79-1.69,1.27h-3.21
							c0-2.4,2.21-3.37,4.58-3.37c1.87,0,4.68,0.5,4.68,3.12v6.35c0,0.94,0.04,1.29,0.31,1.69H1397.83z M1395.46,385.58
							c-1.1,0.35-1.37,0.87-1.37,1.35c0,0.38,0.31,1.1,1.23,1.1c1.25,0,2.21-1.12,2.21-2.66v-0.48L1395.46,385.58z"/>
						<path class="st2" d="M1406.43,379.23v1.13c0.27-0.23,0.56-0.52,1.27-0.81c0.87-0.35,1.48-0.42,1.87-0.44v2.83l-1.06,0.17
							c-1.69,0.27-2,0.71-2,1.87v6.12h-3.18v-10.87H1406.43z"/>
						<path class="st2" d="M1418.1,382.34c-0.71-0.58-1.75-1.08-2.77-1.08c-0.69,0-1.5,0.23-1.5,0.83c0,0.52,0.5,0.69,1.77,0.94
							l0.77,0.14c2.35,0.44,3.91,1.39,3.91,3.41c0,2.71-2.87,3.79-5.14,3.79c-2.71,0-4.48-1.25-5.27-2.1l2.02-1.83
							c0.79,0.83,2,1.5,3.16,1.5c1.06,0,1.94-0.38,1.94-1.06c0-0.6-0.56-0.77-1.73-0.96l-0.98-0.17c-2.58-0.44-3.64-1.56-3.64-3.23
							c0-1.85,1.54-3.64,4.6-3.64c1.85,0,3.52,0.63,4.83,1.62L1418.1,382.34z"/>
						<path class="st2" d="M1425.39,386.6v2.85c0,2.46-0.94,3.62-3.31,4.25v-1.48c1.02-0.38,1.17-1.14,1.25-2.12h-1.27v-3.5H1425.39
							z"/>
						<path class="st2" d="M1432.05,381.05v-0.5c0-3.33,2.15-4.81,4.95-4.81c2.89,0,4.79,1.58,4.79,4.31c0,2.46-1.33,4.33-5.45,7.47
							c0,0,4.91-0.08,5.5-0.08v2.66h-9.68v-2.46c1.08-0.85,1.81-1.42,3.27-2.66c1.67-1.46,2.87-2.65,2.87-4.87
							c0-0.56,0-1.94-1.44-1.94c-0.56,0-1.54,0.25-1.54,1.73c0,0.36,0.04,0.9,0.08,1.33L1432.05,381.05z"/>
						<path class="st2" d="M1449.01,375.76c4.52,0,5,5.35,5,7.35c0,3.21-1.06,7.31-5.12,7.31c-3.33,0-4.89-2.91-4.89-7.47
							C1443.99,378.96,1445.56,375.76,1449.01,375.76z M1449.01,387.83c1.58,0,1.87-2.41,1.87-4.68c0-2.29-0.37-4.79-1.91-4.79
							c-1.48,0-1.87,2.06-1.9,5.27C1447.08,385.25,1447.33,387.83,1449.01,387.83z"/>
						<path class="st2" d="M1456.19,378.09c0.85-0.06,1.56-0.13,2.33-0.52c0.92-0.48,1.19-1.02,1.46-1.58h2.54v14.12h-3.35V379.8
							c-0.77,0.33-0.96,0.42-2.98,0.46V378.09z"/>
						<path class="st2" d="M1472.8,379.92v-0.27c0-0.83-0.54-1.42-1.29-1.42c-1.81,0-2,2.69-2.06,4.45
							c0.35-0.77,1.46-1.64,3.06-1.64c1.71,0,3.89,1.21,3.89,4.33c0,3.14-2.08,4.95-5.06,4.95c-2.48,0-5.06-1.58-5.06-6.95
							c0-3.83,0.89-7.66,5.5-7.66c3.58,0,4.16,2.79,4.35,3.83L1472.8,379.92z M1471.49,387.87c1.73,0,1.73-1.87,1.73-2.27
							c0-0.54-0.08-2.16-1.69-2.16c-0.96,0-1.67,0.75-1.67,2.16C1469.86,386.38,1470.05,387.87,1471.49,387.87z"/>
						<path class="st2" d="M1478.64,385.17v-2.98h11.45v2.98H1478.64z"/>
						<path class="st2" d="M1491.6,381.05v-0.5c0-3.33,2.15-4.81,4.95-4.81c2.89,0,4.79,1.58,4.79,4.31c0,2.46-1.33,4.33-5.45,7.47
							c0,0,4.91-0.08,5.5-0.08v2.66h-9.68v-2.46c1.08-0.85,1.81-1.42,3.27-2.66c1.67-1.46,2.87-2.65,2.87-4.87
							c0-0.56,0-1.94-1.44-1.94c-0.56,0-1.54,0.25-1.54,1.73c0,0.36,0.04,0.9,0.08,1.33L1491.6,381.05z"/>
						<path class="st2" d="M1508.56,375.76c4.52,0,5,5.35,5,7.35c0,3.21-1.06,7.31-5.12,7.31c-3.33,0-4.89-2.91-4.89-7.47
							C1503.55,378.96,1505.11,375.76,1508.56,375.76z M1508.56,387.83c1.58,0,1.87-2.41,1.87-4.68c0-2.29-0.37-4.79-1.91-4.79
							c-1.48,0-1.87,2.06-1.9,5.27C1506.63,385.25,1506.88,387.83,1508.56,387.83z"/>
						<path class="st2" d="M1515.27,381.05v-0.5c0-3.33,2.15-4.81,4.95-4.81c2.89,0,4.79,1.58,4.79,4.31c0,2.46-1.33,4.33-5.45,7.47
							c0,0,4.91-0.08,5.5-0.08v2.66h-9.68v-2.46c1.08-0.85,1.81-1.42,3.27-2.66c1.67-1.46,2.87-2.65,2.87-4.87
							c0-0.56,0-1.94-1.44-1.94c-0.56,0-1.54,0.25-1.54,1.73c0,0.36,0.04,0.9,0.08,1.33L1515.27,381.05z"/>
						<path class="st2" d="M1527.24,380c0.33-3.39,2.66-4.27,4.93-4.27c3.81,0,4.6,2.44,4.6,3.79c0,1.77-1.02,2.68-2.33,3.14
							c1.77,0.31,2.69,1.6,2.69,3.23c0,1.33-0.88,4.46-5.35,4.46c-3.12,0-4.81-1.87-4.81-4.68v-0.31l3.25-0.27
							c0,0-0.02,0.39-0.02,0.6c0,1.31,0.77,2.08,1.73,2.08c1.1,0,1.85-0.77,1.85-2.08c0-1.6-1.21-1.81-2.08-1.81
							c-0.17,0-0.46,0.02-0.46,0.02v-2.39c0,0,0.31,0.02,0.48,0.02c1.77,0,1.77-1.52,1.77-1.67c0-1.14-0.83-1.6-1.52-1.6
							c-1.44,0-1.44,1.44-1.44,2.04L1527.24,380z"/>
					</g>
				</g>
			</g>
		</g>
		<g>
			<path class="st2" d="M795.57,215.82v-43.17h35.78v43.17h43.17v35.78h-43.17v43.41h-35.78V251.6H752.4v-35.78H795.57z"/>
		</g>
		<g>
			<g>
				<g>
					<g>
						<path class="st2" d="M136.36,377.89V359.8h6.82c1.2,0,2.12,0.06,2.75,0.17c0.89,0.15,1.63,0.43,2.23,0.85
							c0.6,0.42,1.08,1,1.45,1.75c0.37,0.75,0.55,1.57,0.55,2.47c0,1.54-0.49,2.84-1.47,3.91c-0.98,1.07-2.75,1.6-5.31,1.6h-4.64
							v7.36H136.36z M138.76,368.4h4.68c1.55,0,2.64-0.29,3.3-0.86c0.65-0.58,0.97-1.39,0.97-2.43c0-0.76-0.19-1.4-0.57-1.94
							c-0.38-0.54-0.89-0.89-1.51-1.07c-0.4-0.11-1.15-0.16-2.23-0.16h-4.63V368.4z"/>
						<path class="st2" d="M152.11,371.34c0-2.43,0.67-4.23,2.02-5.39c1.13-0.97,2.5-1.46,4.12-1.46c1.8,0,3.27,0.59,4.42,1.77
							c1.14,1.18,1.72,2.81,1.72,4.89c0,1.69-0.25,3.01-0.76,3.98c-0.51,0.97-1.24,1.72-2.21,2.25c-0.97,0.53-2.02,0.8-3.17,0.8
							c-1.84,0-3.32-0.59-4.45-1.77C152.68,375.24,152.11,373.55,152.11,371.34z M154.39,371.34c0,1.68,0.37,2.94,1.1,3.77
							c0.73,0.84,1.65,1.25,2.76,1.25c1.1,0,2.02-0.42,2.75-1.26c0.73-0.84,1.1-2.12,1.1-3.84c0-1.62-0.37-2.85-1.1-3.68
							c-0.74-0.83-1.65-1.25-2.75-1.25c-1.11,0-2.03,0.42-2.76,1.25C154.76,368.4,154.39,369.66,154.39,371.34z"/>
						<path class="st2" d="M169.41,377.89l-4.01-13.11h2.3l2.09,7.57l0.78,2.81c0.03-0.14,0.26-1.04,0.68-2.7l2.09-7.68h2.28
							l1.96,7.6l0.65,2.51l0.75-2.53l2.25-7.58h2.16l-4.1,13.11h-2.31l-2.09-7.85l-0.51-2.23l-2.65,10.08H169.41z"/>
						<path class="st2" d="M194.22,373.67l2.3,0.28c-0.36,1.34-1.03,2.38-2.01,3.12c-0.98,0.74-2.23,1.11-3.75,1.11
							c-1.92,0-3.44-0.59-4.56-1.77c-1.12-1.18-1.68-2.84-1.68-4.97c0-2.21,0.57-3.92,1.7-5.13c1.14-1.22,2.61-1.83,4.42-1.83
							c1.75,0,3.18,0.6,4.29,1.79c1.11,1.19,1.67,2.87,1.67,5.04c0,0.13,0,0.33-0.01,0.59h-9.78c0.08,1.44,0.49,2.54,1.22,3.31
							c0.73,0.77,1.65,1.15,2.74,1.15c0.81,0,1.51-0.21,2.09-0.64C193.43,375.29,193.88,374.61,194.22,373.67z M186.93,370.08h7.32
							c-0.1-1.1-0.38-1.93-0.84-2.48c-0.71-0.86-1.63-1.28-2.75-1.28c-1.02,0-1.88,0.34-2.57,1.02
							C187.39,368.02,187,368.93,186.93,370.08z"/>
						<path class="st2" d="M199.28,377.89v-13.11h2v1.99c0.51-0.93,0.98-1.54,1.41-1.84c0.43-0.3,0.91-0.44,1.43-0.44
							c0.75,0,1.51,0.24,2.28,0.72l-0.76,2.06c-0.54-0.32-1.09-0.48-1.63-0.48c-0.49,0-0.92,0.15-1.31,0.44
							c-0.39,0.29-0.66,0.7-0.83,1.22c-0.25,0.79-0.37,1.65-0.37,2.59v6.86H199.28z"/>
						<path class="st2" d="M216.7,373.67l2.3,0.28c-0.36,1.34-1.03,2.38-2.01,3.12s-2.23,1.11-3.75,1.11
							c-1.92,0-3.44-0.59-4.56-1.77c-1.12-1.18-1.68-2.84-1.68-4.97c0-2.21,0.57-3.92,1.7-5.13c1.14-1.22,2.61-1.83,4.42-1.83
							c1.75,0,3.18,0.6,4.29,1.79c1.11,1.19,1.67,2.87,1.67,5.04c0,0.13,0,0.33-0.01,0.59h-9.78c0.08,1.44,0.49,2.54,1.22,3.31
							c0.73,0.77,1.65,1.15,2.74,1.15c0.81,0,1.51-0.21,2.09-0.64C215.9,375.29,216.36,374.61,216.7,373.67z M209.4,370.08h7.32
							c-0.1-1.1-0.38-1.93-0.84-2.48c-0.71-0.86-1.63-1.28-2.75-1.28c-1.02,0-1.88,0.34-2.57,1.02
							C209.86,368.02,209.48,368.93,209.4,370.08z"/>
						<path class="st2" d="M230.29,377.89v-1.65c-0.83,1.3-2.05,1.95-3.67,1.95c-1.04,0-2.01-0.29-2.88-0.86
							c-0.88-0.58-1.56-1.38-2.04-2.41c-0.48-1.03-0.72-2.22-0.72-3.56c0-1.31,0.22-2.5,0.65-3.56c0.44-1.07,1.09-1.88,1.96-2.45
							c0.87-0.57,1.85-0.85,2.92-0.85c0.79,0,1.49,0.17,2.11,0.5s1.12,0.77,1.51,1.3v-6.49h2.21v18.09H230.29z M223.26,371.35
							c0,1.68,0.35,2.93,1.06,3.76c0.71,0.83,1.54,1.25,2.51,1.25c0.97,0,1.8-0.4,2.47-1.19c0.68-0.79,1.02-2.01,1.02-3.64
							c0-1.79-0.35-3.11-1.04-3.95s-1.54-1.26-2.55-1.26c-0.99,0-1.81,0.4-2.47,1.21C223.59,368.34,223.26,369.61,223.26,371.35z"/>
						<path class="st2" d="M244.91,377.89h-2.06V359.8h2.22v6.45c0.94-1.18,2.13-1.76,3.59-1.76c0.81,0,1.57,0.16,2.29,0.49
							c0.72,0.33,1.31,0.78,1.78,1.37c0.46,0.59,0.83,1.3,1.09,2.13c0.26,0.83,0.39,1.72,0.39,2.67c0,2.25-0.56,3.98-1.67,5.21
							c-1.11,1.23-2.44,1.84-4,1.84c-1.55,0-2.76-0.65-3.64-1.94V377.89z M244.89,371.24c0,1.57,0.21,2.71,0.64,3.41
							c0.7,1.14,1.65,1.72,2.84,1.72c0.97,0,1.81-0.42,2.52-1.26c0.71-0.84,1.06-2.1,1.06-3.77c0-1.71-0.34-2.97-1.02-3.79
							c-0.68-0.81-1.5-1.22-2.46-1.22c-0.97,0-1.81,0.42-2.52,1.26C245.24,368.42,244.89,369.64,244.89,371.24z"/>
						<path class="st2" d="M256.82,382.94l-0.25-2.09c0.48,0.13,0.91,0.2,1.27,0.2c0.49,0,0.89-0.08,1.18-0.25
							c0.3-0.16,0.54-0.39,0.73-0.69c0.14-0.22,0.37-0.77,0.68-1.65c0.04-0.12,0.11-0.3,0.2-0.54l-4.97-13.13h2.39l2.73,7.59
							c0.35,0.96,0.67,1.98,0.95,3.04c0.25-1.02,0.56-2.02,0.91-2.99l2.8-7.64h2.22l-4.99,13.33c-0.53,1.44-0.95,2.43-1.25,2.97
							c-0.39,0.73-0.85,1.27-1.36,1.61c-0.51,0.34-1.12,0.51-1.83,0.51C257.83,383.21,257.35,383.12,256.82,382.94z"/>
						<path class="st2" d="M297.61,377.89h-4.97l-1.97-5.14h-9.04l-1.87,5.14h-4.84l8.81-22.62h4.83L297.61,377.89z M289.2,368.94
							l-3.12-8.39l-3.05,8.39H289.2z"/>
						<path class="st2" d="M304.15,377.89h-4.33V361.5h4.03v2.33c0.69-1.1,1.31-1.83,1.86-2.18c0.55-0.35,1.17-0.52,1.87-0.52
							c0.99,0,1.94,0.27,2.85,0.82l-1.34,3.78c-0.73-0.47-1.41-0.71-2.04-0.71c-0.61,0-1.12,0.17-1.54,0.5
							c-0.42,0.33-0.75,0.94-1,1.81c-0.24,0.87-0.36,2.71-0.36,5.49V377.89z"/>
						<path class="st2" d="M312.3,359.28v-4.01h4.34v4.01H312.3z M312.3,377.89V361.5h4.34v16.38H312.3z"/>
						<path class="st2" d="M319.33,377.89v-3.38l6.14-7.05c1.01-1.15,1.75-1.97,2.24-2.45c-0.5,0.03-1.17,0.05-1.99,0.06l-5.79,0.03
							v-3.59h13.55v3.07l-6.26,7.22l-2.21,2.39c1.2-0.07,1.95-0.11,2.24-0.11h6.71v3.81H319.33z"/>
						<path class="st2" d="M335.87,369.47c0-1.44,0.35-2.83,1.06-4.18c0.71-1.35,1.72-2.38,3.02-3.09c1.3-0.71,2.75-1.06,4.36-1.06
							c2.48,0,4.51,0.8,6.09,2.41c1.58,1.61,2.38,3.64,2.38,6.1c0,2.48-0.8,4.53-2.4,6.16c-1.6,1.63-3.61,2.45-6.04,2.45
							c-1.5,0-2.93-0.34-4.3-1.02c-1.36-0.68-2.4-1.67-3.11-2.99C336.22,372.94,335.87,371.35,335.87,369.47z M340.31,369.7
							c0,1.63,0.39,2.87,1.16,3.73c0.77,0.86,1.72,1.3,2.85,1.3s2.08-0.43,2.85-1.3c0.77-0.86,1.15-2.12,1.15-3.76
							c0-1.6-0.38-2.84-1.15-3.7c-0.77-0.86-1.72-1.3-2.85-1.3s-2.08,0.43-2.85,1.3C340.7,366.83,340.31,368.07,340.31,369.7z"/>
						<path class="st2" d="M371.08,377.89h-4.34v-8.36c0-1.77-0.09-2.91-0.28-3.43c-0.19-0.52-0.49-0.92-0.9-1.21
							c-0.42-0.29-0.92-0.43-1.5-0.43c-0.75,0-1.42,0.21-2.02,0.62c-0.6,0.41-1.01,0.96-1.23,1.64c-0.22,0.68-0.33,1.93-0.33,3.76
							v7.42h-4.34V361.5h4.03v2.41c1.43-1.85,3.23-2.78,5.4-2.78c0.96,0,1.83,0.17,2.62,0.52c0.79,0.34,1.39,0.78,1.8,1.32
							c0.41,0.53,0.69,1.14,0.85,1.82c0.16,0.68,0.24,1.65,0.24,2.92V377.89z"/>
						<path class="st2" d="M378.71,366.5l-3.93-0.71c0.44-1.58,1.2-2.76,2.28-3.52c1.08-0.76,2.68-1.14,4.81-1.14
							c1.93,0,3.37,0.23,4.32,0.69c0.95,0.46,1.61,1.04,2,1.74c0.39,0.7,0.58,2,0.58,3.88l-0.05,5.06c0,1.44,0.07,2.5,0.21,3.19
							c0.14,0.68,0.4,1.42,0.78,2.2h-4.29c-0.11-0.29-0.25-0.71-0.42-1.28c-0.07-0.26-0.12-0.43-0.15-0.51
							c-0.74,0.72-1.53,1.26-2.38,1.62c-0.84,0.36-1.74,0.54-2.7,0.54c-1.69,0-3.02-0.46-3.99-1.37c-0.97-0.92-1.46-2.07-1.46-3.47
							c0-0.93,0.22-1.75,0.66-2.48c0.44-0.72,1.06-1.28,1.86-1.67c0.8-0.39,1.95-0.72,3.45-1.01c2.03-0.38,3.43-0.74,4.21-1.06
							v-0.43c0-0.83-0.21-1.43-0.62-1.78c-0.41-0.35-1.19-0.53-2.33-0.53c-0.77,0-1.37,0.15-1.81,0.45
							C379.33,365.21,378.98,365.74,378.71,366.5z M384.51,370.02c-0.56,0.19-1.43,0.41-2.64,0.66c-1.2,0.26-1.99,0.51-2.36,0.76
							c-0.57,0.4-0.85,0.91-0.85,1.53c0,0.61,0.23,1.13,0.68,1.57c0.45,0.44,1.03,0.66,1.73,0.66c0.78,0,1.53-0.26,2.24-0.77
							c0.52-0.39,0.87-0.87,1.03-1.43c0.11-0.37,0.17-1.08,0.17-2.11V370.02z"/>
						<path class="st2" d="M400.7,370.53l4.44-0.43c0.27,1.49,0.81,2.59,1.63,3.29c0.82,0.7,1.92,1.05,3.31,1.05
							c1.47,0,2.58-0.31,3.32-0.93c0.75-0.62,1.12-1.35,1.12-2.18c0-0.53-0.16-0.99-0.47-1.36c-0.31-0.38-0.86-0.7-1.64-0.98
							c-0.53-0.19-1.75-0.51-3.66-0.99c-2.45-0.61-4.17-1.35-5.15-2.24c-1.39-1.24-2.08-2.76-2.08-4.55c0-1.15,0.33-2.23,0.98-3.23
							c0.65-1,1.59-1.77,2.82-2.29c1.23-0.52,2.71-0.79,4.45-0.79c2.84,0,4.98,0.62,6.41,1.87c1.44,1.24,2.19,2.91,2.26,4.98
							l-4.57,0.2c-0.2-1.16-0.61-2-1.26-2.51c-0.64-0.51-1.61-0.76-2.89-0.76c-1.33,0-2.37,0.27-3.12,0.82
							c-0.48,0.35-0.72,0.82-0.72,1.4c0,0.54,0.23,0.99,0.68,1.37c0.58,0.48,1.97,0.99,4.2,1.51c2.22,0.52,3.86,1.07,4.93,1.63
							c1.06,0.56,1.9,1.33,2.5,2.3c0.6,0.97,0.9,2.17,0.9,3.6c0,1.3-0.36,2.51-1.08,3.64c-0.72,1.13-1.74,1.97-3.05,2.52
							c-1.32,0.55-2.96,0.83-4.92,0.83c-2.86,0-5.06-0.66-6.59-1.98C401.91,374.99,401,373.06,400.7,370.53z"/>
						<path class="st2" d="M430.41,361.5v3.46h-2.96v6.6c0,1.34,0.03,2.12,0.08,2.34c0.06,0.22,0.19,0.4,0.39,0.55
							c0.2,0.14,0.44,0.22,0.73,0.22c0.4,0,0.98-0.14,1.74-0.42l0.37,3.36c-1.01,0.43-2.15,0.65-3.42,0.65
							c-0.78,0-1.49-0.13-2.11-0.39c-0.63-0.26-1.09-0.6-1.38-1.02c-0.29-0.42-0.5-0.98-0.61-1.69c-0.09-0.5-0.14-1.52-0.14-3.05
							v-7.14h-1.99v-3.46h1.99v-3.26l4.35-2.53v5.79H430.41z"/>
						<path class="st2" d="M436.66,366.5l-3.93-0.71c0.44-1.58,1.2-2.76,2.28-3.52c1.08-0.76,2.68-1.14,4.81-1.14
							c1.93,0,3.37,0.23,4.32,0.69c0.95,0.46,1.61,1.04,2,1.74c0.39,0.7,0.58,2,0.58,3.88l-0.05,5.06c0,1.44,0.07,2.5,0.21,3.19
							c0.14,0.68,0.4,1.42,0.78,2.2h-4.29c-0.11-0.29-0.25-0.71-0.42-1.28c-0.07-0.26-0.12-0.43-0.15-0.51
							c-0.74,0.72-1.53,1.26-2.38,1.62c-0.84,0.36-1.74,0.54-2.7,0.54c-1.69,0-3.02-0.46-3.99-1.37c-0.97-0.92-1.46-2.07-1.46-3.47
							c0-0.93,0.22-1.75,0.66-2.48c0.44-0.72,1.06-1.28,1.86-1.67c0.8-0.39,1.95-0.72,3.45-1.01c2.03-0.38,3.43-0.74,4.21-1.06
							v-0.43c0-0.83-0.21-1.43-0.62-1.78c-0.41-0.35-1.19-0.53-2.33-0.53c-0.77,0-1.37,0.15-1.81,0.45
							C437.28,365.21,436.93,365.74,436.66,366.5z M442.46,370.02c-0.56,0.19-1.43,0.41-2.64,0.66c-1.2,0.26-1.99,0.51-2.36,0.76
							c-0.57,0.4-0.85,0.91-0.85,1.53c0,0.61,0.23,1.13,0.68,1.57c0.45,0.44,1.03,0.66,1.73,0.66c0.78,0,1.53-0.26,2.24-0.77
							c0.52-0.39,0.87-0.87,1.03-1.43c0.11-0.37,0.17-1.08,0.17-2.11V370.02z"/>
						<path class="st2" d="M458.5,361.5v3.46h-2.96v6.6c0,1.34,0.03,2.12,0.08,2.34c0.06,0.22,0.19,0.4,0.39,0.55
							c0.2,0.14,0.44,0.22,0.73,0.22c0.4,0,0.98-0.14,1.74-0.42l0.37,3.36c-1.01,0.43-2.15,0.65-3.42,0.65
							c-0.78,0-1.49-0.13-2.11-0.39c-0.63-0.26-1.09-0.6-1.38-1.02c-0.29-0.42-0.5-0.98-0.61-1.69c-0.09-0.5-0.14-1.52-0.14-3.05
							v-7.14h-1.99v-3.46h1.99v-3.26l4.35-2.53v5.79H458.5z"/>
						<path class="st2" d="M471,372.67l4.32,0.72c-0.56,1.58-1.43,2.79-2.63,3.62c-1.2,0.83-2.7,1.24-4.5,1.24
							c-2.85,0-4.96-0.93-6.33-2.79c-1.08-1.49-1.62-3.37-1.62-5.65c0-2.72,0.71-4.84,2.13-6.38s3.21-2.31,5.38-2.31
							c2.44,0,4.36,0.8,5.77,2.41c1.41,1.61,2.08,4.08,2.02,7.4h-10.86c0.03,1.29,0.38,2.29,1.05,3c0.67,0.71,1.5,1.07,2.5,1.07
							c0.68,0,1.25-0.19,1.71-0.56C470.41,374.09,470.76,373.5,471,372.67z M471.25,368.29c-0.03-1.26-0.35-2.21-0.97-2.86
							c-0.62-0.65-1.37-0.98-2.25-0.98c-0.95,0-1.73,0.34-2.35,1.03c-0.62,0.69-0.92,1.63-0.91,2.81H471.25z"/>
						<path class="st2" d="M487.86,355.27h4.57v12.25c0,1.94,0.06,3.2,0.17,3.78c0.2,0.93,0.66,1.67,1.4,2.23
							c0.74,0.56,1.74,0.84,3.02,0.84c1.3,0,2.27-0.26,2.93-0.79c0.66-0.53,1.05-1.18,1.19-1.95s0.2-2.05,0.2-3.84v-12.51h4.57
							v11.88c0,2.72-0.12,4.63-0.37,5.76c-0.25,1.12-0.7,2.07-1.36,2.84c-0.66,0.77-1.55,1.39-2.66,1.84
							c-1.11,0.46-2.56,0.69-4.35,0.69c-2.16,0-3.8-0.25-4.91-0.75c-1.12-0.5-2-1.15-2.65-1.94c-0.65-0.8-1.08-1.63-1.28-2.51
							c-0.3-1.3-0.45-3.21-0.45-5.74V355.27z"/>
						<path class="st2" d="M525.58,377.89h-4.34v-8.36c0-1.77-0.09-2.91-0.28-3.43c-0.19-0.52-0.49-0.92-0.9-1.21
							c-0.42-0.29-0.92-0.43-1.5-0.43c-0.75,0-1.42,0.21-2.02,0.62c-0.6,0.41-1.01,0.96-1.23,1.64c-0.22,0.68-0.33,1.93-0.33,3.76
							v7.42h-4.34V361.5h4.03v2.41c1.43-1.85,3.23-2.78,5.4-2.78c0.96,0,1.83,0.17,2.62,0.52c0.79,0.34,1.39,0.78,1.8,1.32
							c0.41,0.53,0.69,1.14,0.85,1.82c0.16,0.68,0.24,1.65,0.24,2.92V377.89z"/>
						<path class="st2" d="M529.98,359.28v-4.01h4.34v4.01H529.98z M529.98,377.89V361.5h4.34v16.38H529.98z"/>
						<path class="st2" d="M543.26,377.89l-6.6-16.38h4.55l3.09,8.36l0.89,2.79c0.24-0.71,0.39-1.18,0.45-1.4
							c0.14-0.46,0.3-0.93,0.46-1.39l3.12-8.36h4.46l-6.51,16.38H543.26z"/>
						<path class="st2" d="M565.82,372.67l4.32,0.72c-0.56,1.58-1.43,2.79-2.63,3.62c-1.2,0.83-2.7,1.24-4.5,1.24
							c-2.85,0-4.96-0.93-6.33-2.79c-1.08-1.49-1.62-3.37-1.62-5.65c0-2.72,0.71-4.84,2.13-6.38c1.42-1.54,3.21-2.31,5.38-2.31
							c2.44,0,4.36,0.8,5.77,2.41c1.41,1.61,2.08,4.08,2.02,7.4h-10.86c0.03,1.29,0.38,2.29,1.05,3c0.67,0.71,1.5,1.07,2.5,1.07
							c0.68,0,1.25-0.19,1.71-0.56C565.23,374.09,565.58,373.5,565.82,372.67z M566.07,368.29c-0.03-1.26-0.35-2.21-0.97-2.86
							c-0.62-0.65-1.37-0.98-2.25-0.98c-0.95,0-1.73,0.34-2.35,1.03c-0.62,0.69-0.92,1.63-0.91,2.81H566.07z"/>
						<path class="st2" d="M578.05,377.89h-4.34V361.5h4.03v2.33c0.69-1.1,1.31-1.83,1.86-2.18c0.55-0.35,1.17-0.52,1.87-0.52
							c0.99,0,1.94,0.27,2.85,0.82l-1.34,3.78c-0.73-0.47-1.41-0.71-2.04-0.71c-0.61,0-1.12,0.17-1.54,0.5
							c-0.42,0.33-0.75,0.94-1,1.81c-0.24,0.87-0.36,2.71-0.36,5.49V377.89z"/>
						<path class="st2" d="M584.67,373.21l4.35-0.66c0.18,0.84,0.56,1.48,1.13,1.92c0.57,0.44,1.36,0.66,2.38,0.66
							c1.12,0,1.96-0.21,2.53-0.62c0.38-0.29,0.57-0.67,0.57-1.16c0-0.33-0.1-0.6-0.31-0.82c-0.22-0.21-0.7-0.4-1.45-0.57
							c-3.5-0.77-5.71-1.48-6.65-2.11c-1.3-0.88-1.94-2.11-1.94-3.69c0-1.42,0.56-2.61,1.68-3.58c1.12-0.97,2.86-1.45,5.21-1.45
							c2.24,0,3.91,0.37,5,1.1c1.09,0.73,1.84,1.81,2.25,3.24l-4.09,0.76c-0.17-0.64-0.51-1.13-0.99-1.47
							c-0.49-0.34-1.19-0.51-2.09-0.51c-1.14,0-1.96,0.16-2.45,0.48c-0.33,0.23-0.49,0.52-0.49,0.88c0,0.31,0.14,0.57,0.43,0.79
							c0.39,0.29,1.74,0.69,4.05,1.22c2.31,0.52,3.92,1.17,4.84,1.93c0.9,0.77,1.36,1.85,1.36,3.22c0,1.5-0.63,2.79-1.88,3.87
							c-1.26,1.08-3.11,1.62-5.57,1.62c-2.23,0-4-0.45-5.3-1.36C585.92,376,585.07,374.77,584.67,373.21z"/>
						<path class="st2" d="M603.77,359.28v-4.01h4.34v4.01H603.77z M603.77,377.89V361.5h4.34v16.38H603.77z"/>
						<path class="st2" d="M620.06,361.5v3.46h-2.96v6.6c0,1.34,0.03,2.12,0.08,2.34c0.06,0.22,0.19,0.4,0.39,0.55
							c0.2,0.14,0.44,0.22,0.73,0.22c0.4,0,0.98-0.14,1.74-0.42l0.37,3.36c-1.01,0.43-2.15,0.65-3.42,0.65
							c-0.78,0-1.49-0.13-2.11-0.39c-0.63-0.26-1.09-0.6-1.38-1.02c-0.29-0.42-0.5-0.98-0.61-1.69c-0.09-0.5-0.14-1.52-0.14-3.05
							v-7.14h-1.99v-3.46h1.99v-3.26l4.35-2.53v5.79H620.06z"/>
						<path class="st2" d="M621.02,361.5h4.61l3.92,11.63l3.83-11.63h4.49l-5.79,15.77l-1.03,2.85c-0.38,0.96-0.74,1.69-1.09,2.19
							c-0.34,0.5-0.74,0.91-1.19,1.23c-0.45,0.31-1,0.56-1.65,0.73c-0.65,0.17-1.39,0.26-2.21,0.26c-0.83,0-1.65-0.09-2.45-0.26
							l-0.39-3.39c0.68,0.13,1.29,0.2,1.84,0.2c1.01,0,1.75-0.3,2.24-0.89c0.48-0.59,0.85-1.35,1.11-2.26L621.02,361.5z"/>
					</g>
					<path class="st2" d="M647.79,355.42v2.52h0.52c0.52,0,0.71-0.01,0.99-0.02c0.33-0.01,1.42-0.07,1.42-1.25
						c0-0.17-0.01-0.76-0.64-1.08c-0.32-0.16-0.71-0.17-1.6-0.17H647.79L647.79,355.42z M646.3,354.11h2.57
						c1.07,0.01,1.79,0.01,2.5,0.58c0.5,0.41,0.89,1.05,0.89,1.99c0,1.54-1.13,2.08-1.59,2.21l1.79,3.28h-1.72l-1.6-2.99h-1.34v2.99
						h-1.5V354.11L646.3,354.11z M648.97,350.96c-3.92,0-7.24,3.08-7.24,7.26c0,4.3,3.47,7.26,7.24,7.26c4.1,0,7.26-3.2,7.28-7.22
						C656.27,354.28,653.19,350.96,648.97,350.96L648.97,350.96z M648.99,364.64c-3.55,0-6.42-2.81-6.42-6.42
						c0-3.53,2.81-6.42,6.44-6.42c3.67,0,6.42,2.93,6.4,6.44C655.38,361.81,652.61,364.64,648.99,364.64L648.99,364.64z"/>
				</g>
				<rect x="132.54" y="333.91" class="st2" width="529.51" height="2.59"/>
				<g>
					<path class="st4" d="M328.39,267.37h62.66V202.8h54.67v-47.69h-54.67v-22.88h60.02V84.38H328.39V267.37z M343.21,99.67h93.06
						v17.23h-60.09v53.47h54.8v17.16h-54.8v64.56h-32.97V99.67z"/>
					<path class="st4" d="M247.94,190.88c0,12.02-2.95,20.87-22.75,21.15h-0.86c-19.68,0-22.74-8.96-22.74-21.15V84.38h-63.13
						v107.13c0,28.6,17.58,75.9,84.55,75.9h4.07c66.49-0.29,83.98-47.39,83.98-75.9V84.38h-63.13V190.88z M262.66,191.36V99.67
						h33.61v90.88c0,12.2-4.56,61.2-69.29,61.51h-3.88c-65.31,0-69.89-49.28-69.89-61.51V99.67h33.59v91.69
						c0,6.6-0.86,34.53,36.75,35.94h1.35C263.54,225.89,262.66,197.96,262.66,191.36z"/>
					<path class="st4" d="M557.79,158.54v39.47h29.72c0,0-6.48,16.51-29.03,16.51c-19.18,0-35.67-16.11-35.67-38.69
						c0-22.58,10.98-38.91,35.67-38.91c4.98,0,14.42,1.01,32.84,9.43l58.5-16.89c0,0-19.76-44.6-91.39-44.6
						c-28.78,0-50.19,8.16-66.88,22.47c-20.16,17.29-30.7,45.27-30.7,68.51c0,21.89,7.75,47.89,30.82,68.63
						c15.17,13.65,37.42,22.46,66.76,22.46c21.34,0,49.8-5.73,66.21-21.9c18.67-18.42,31.71-40.55,31.71-69.07v-17.41H557.79z
						 M641.72,182.62c-0.28,2.71-0.63,5.5-1.51,9.15c-1.34,5.49-3.59,11.94-7.3,18.84c-4.08,7.58-9.93,15.73-18.31,23.85
						c-11.47,10.78-33.36,17.63-55.99,17.63c-64.05,0-83.58-46.72-83.58-76.19c0-15.57,7.3-42.2,26.8-58.27
						c12.98-10.68,29.13-17.94,56.66-17.94c48.62,0,66.11,21.73,66.11,21.73l-32.11,9.31c0,0-18.15-8.55-34-8.55
						c-27.57,0-50,17.39-50,53.73c0,16.56,10.72,53.43,50,53.43c21.39,0,46.37-13.57,46.37-46.15h-32.78v-9.88h69.88
						C641.95,173.31,642.24,177.09,641.72,182.62z"/>
					<path class="st5" d="M224.9,227.3h-1.35c-37.61-1.41-36.75-29.34-36.75-35.94V99.67h-33.59v90.88
						c0,12.23,4.58,61.51,69.89,61.51h3.88c64.73-0.31,69.29-49.31,69.29-61.51V99.67h-33.61v91.69
						C262.66,197.96,263.54,225.89,224.9,227.3z"/>
					<path class="st5" d="M572.07,173.31v9.88h32.78c0,32.58-24.97,46.15-46.37,46.15c-39.29,0-50-36.87-50-53.43
						c0-36.34,22.43-53.73,50-53.73c15.85,0,34,8.55,34,8.55l32.11-9.31c0,0-17.49-21.73-66.11-21.73
						c-27.53,0-43.68,7.26-56.66,17.94c-19.5,16.07-26.8,42.7-26.8,58.27c0,29.47,19.53,76.19,83.58,76.19
						c22.63,0,44.52-6.85,55.99-17.63c8.38-8.12,14.24-16.27,18.31-23.85c3.71-6.9,5.96-13.35,7.3-18.84
						c0.88-3.65,1.23-6.44,1.51-9.15c0.52-5.53,0.23-9.31,0.23-9.31H572.07z"/>
					<polygon class="st5" points="376.18,187.53 430.98,187.53 430.98,170.37 376.18,170.37 376.18,116.9 436.27,116.9 
						436.27,99.67 343.21,99.67 343.21,252.09 376.18,252.09 					"/>
				</g>
				<g>
					<path class="st4" d="M141.74,286.11v13.54c0,1.93,0.31,3.34,0.95,4.24c0.94,1.29,2.27,1.94,3.97,1.94
						c1.72,0,3.05-0.65,3.99-1.94c0.63-0.87,0.95-2.28,0.95-4.24v-13.54h3.39v14.47c0,2.37-0.74,4.32-2.21,5.85
						c-1.66,1.71-3.7,2.56-6.11,2.56c-2.42,0-4.45-0.86-6.1-2.56c-1.48-1.53-2.21-3.48-2.21-5.85v-14.47H141.74z"/>
					<path class="st4" d="M160.37,308.59v-24.01l16.39,17.15v-15.62h3.39v23.84l-16.39-17.1v15.74H160.37z"/>
					<path class="st4" d="M188.93,286.11v22.48h-3.39v-22.48H188.93z"/>
					<path class="st4" d="M195.47,286.11l6.22,15.58l6.3-15.58h3.71l-10.09,24.17l-9.86-24.17H195.47z"/>
					<path class="st4" d="M226.9,289.3h-9.01v5.4h8.75v3.19h-8.75v7.51h9.01v3.19h-12.4v-22.48h12.4V289.3z"/>
					<path class="st4" d="M238.97,299.01l6.96,9.58h-4.15l-6.42-9.2h-0.61v9.2h-3.39v-22.48h3.97c2.97,0,5.11,0.56,6.43,1.67
						c1.46,1.24,2.18,2.88,2.18,4.92c0,1.59-0.46,2.96-1.37,4.1C241.67,297.96,240.46,298.69,238.97,299.01z M234.75,296.43h1.08
						c3.21,0,4.82-1.23,4.82-3.68c0-2.3-1.56-3.45-4.69-3.45h-1.21V296.43z"/>
					<path class="st4" d="M262.01,289.46l-2.75,1.63c-0.51-0.89-1-1.48-1.47-1.75c-0.49-0.31-1.11-0.47-1.88-0.47
						c-0.94,0-1.72,0.27-2.34,0.8c-0.62,0.52-0.93,1.19-0.93,1.98c0,1.1,0.82,1.98,2.45,2.65l2.24,0.92c1.82,0.74,3.16,1.64,4,2.7
						c0.84,1.06,1.27,2.37,1.27,3.91c0,2.07-0.69,3.77-2.07,5.12c-1.39,1.36-3.11,2.04-5.17,2.04c-1.95,0-3.56-0.58-4.83-1.73
						c-1.25-1.15-2.03-2.78-2.34-4.88l3.44-0.76c0.15,1.32,0.43,2.23,0.82,2.74c0.7,0.97,1.72,1.46,3.06,1.46
						c1.06,0,1.94-0.35,2.63-1.06c0.7-0.71,1.05-1.61,1.05-2.69c0-0.44-0.06-0.84-0.18-1.2c-0.12-0.36-0.31-0.7-0.57-1
						c-0.26-0.31-0.59-0.59-1-0.86c-0.41-0.27-0.89-0.52-1.46-0.76l-2.17-0.9c-3.08-1.3-4.62-3.2-4.62-5.71
						c0-1.69,0.65-3.1,1.94-4.24c1.29-1.14,2.9-1.72,4.82-1.72C258.53,285.68,260.56,286.94,262.01,289.46z"/>
					<path class="st4" d="M270.08,286.11v22.48h-3.39v-22.48H270.08z"/>
					<path class="st4" d="M275.48,308.59v-22.48h4.72c2.26,0,4.05,0.22,5.36,0.67c1.41,0.44,2.68,1.18,3.83,2.23
						c2.32,2.12,3.48,4.9,3.48,8.34c0,3.45-1.21,6.25-3.63,8.38c-1.21,1.07-2.49,1.81-3.81,2.23c-1.24,0.42-3,0.63-5.28,0.63H275.48
						z M278.87,305.4h1.53c1.52,0,2.79-0.16,3.8-0.48c1.01-0.34,1.92-0.88,2.74-1.62c1.67-1.52,2.5-3.51,2.5-5.95
						c0-2.46-0.83-4.46-2.47-6c-1.49-1.37-3.67-2.05-6.57-2.05h-1.53V305.4z"/>
					<path class="st4" d="M309.22,303.13h-9.62l-2.5,5.46h-3.65l11.12-23.89l10.73,23.89h-3.71L309.22,303.13z M307.84,299.94
						l-3.33-7.64l-3.49,7.64H307.84z"/>
					<path class="st4" d="M318.1,308.59v-22.48h4.72c2.26,0,4.05,0.22,5.36,0.67c1.41,0.44,2.68,1.18,3.83,2.23
						c2.32,2.12,3.48,4.9,3.48,8.34c0,3.45-1.21,6.25-3.63,8.38c-1.21,1.07-2.49,1.81-3.81,2.23c-1.24,0.42-3,0.63-5.28,0.63H318.1z
						 M321.49,305.4h1.53c1.52,0,2.79-0.16,3.8-0.48c1.01-0.34,1.92-0.88,2.74-1.62c1.67-1.52,2.5-3.51,2.5-5.95
						c0-2.46-0.83-4.46-2.47-6c-1.49-1.37-3.67-2.05-6.57-2.05h-1.53V305.4z"/>
					<path class="st4" d="M360.17,289.3h-7.83v5.4h7.55v3.19h-7.55v10.7h-3.39v-22.48h11.22V289.3z"/>
					<path class="st4" d="M371.72,299.01l6.96,9.58h-4.15l-6.42-9.2h-0.61v9.2h-3.39v-22.48h3.97c2.97,0,5.11,0.56,6.43,1.67
						c1.46,1.24,2.18,2.88,2.18,4.92c0,1.59-0.46,2.96-1.37,4.1C374.42,297.96,373.21,298.69,371.72,299.01z M367.5,296.43h1.08
						c3.21,0,4.82-1.23,4.82-3.68c0-2.3-1.56-3.45-4.69-3.45h-1.21V296.43z"/>
					<path class="st4" d="M395.26,303.13h-9.62l-2.5,5.46h-3.65l11.12-23.89l10.73,23.89h-3.71L395.26,303.13z M393.87,299.94
						l-3.33-7.64l-3.49,7.64H393.87z"/>
					<path class="st4" d="M404.14,308.59v-24.01l16.39,17.15v-15.62h3.39v23.84l-16.39-17.1v15.74H404.14z"/>
					<path class="st4" d="M446.12,287.32v4.02c-1.96-1.64-3.99-2.46-6.09-2.46c-2.31,0-4.26,0.83-5.84,2.49
						c-1.59,1.65-2.39,3.67-2.39,6.05c0,2.36,0.8,4.35,2.39,5.97c1.59,1.62,3.54,2.43,5.85,2.43c1.19,0,2.21-0.19,3.04-0.58
						c0.47-0.19,0.95-0.46,1.45-0.79c0.5-0.33,1.03-0.73,1.58-1.2v4.09c-1.94,1.1-3.98,1.65-6.11,1.65c-3.21,0-5.95-1.12-8.23-3.36
						c-2.26-2.26-3.39-4.99-3.39-8.18c0-2.86,0.95-5.41,2.84-7.66c2.33-2.75,5.34-4.12,9.04-4.12
						C442.29,285.68,444.24,286.22,446.12,287.32z"/>
					<path class="st4" d="M453.79,286.11v22.48h-3.39v-22.48H453.79z"/>
					<path class="st4" d="M471.9,289.46l-2.75,1.63c-0.51-0.89-1-1.48-1.47-1.75c-0.49-0.31-1.11-0.47-1.88-0.47
						c-0.94,0-1.72,0.27-2.34,0.8c-0.62,0.52-0.93,1.19-0.93,1.98c0,1.1,0.82,1.98,2.45,2.65l2.24,0.92c1.82,0.74,3.16,1.64,4,2.7
						c0.84,1.06,1.27,2.37,1.27,3.91c0,2.07-0.69,3.77-2.07,5.12c-1.39,1.36-3.11,2.04-5.17,2.04c-1.95,0-3.56-0.58-4.83-1.73
						c-1.25-1.15-2.03-2.78-2.34-4.88l3.43-0.76c0.16,1.32,0.43,2.23,0.82,2.74c0.7,0.97,1.72,1.46,3.06,1.46
						c1.06,0,1.94-0.35,2.63-1.06c0.7-0.71,1.05-1.61,1.05-2.69c0-0.44-0.06-0.84-0.18-1.2c-0.12-0.36-0.31-0.7-0.57-1
						c-0.26-0.31-0.59-0.59-1-0.86s-0.89-0.52-1.46-0.76l-2.17-0.9c-3.08-1.3-4.61-3.2-4.61-5.71c0-1.69,0.64-3.1,1.94-4.24
						c1.29-1.14,2.9-1.72,4.82-1.72C468.43,285.68,470.45,286.94,471.9,289.46z"/>
					<path class="st4" d="M493.19,287.32v4.02c-1.96-1.64-3.99-2.46-6.09-2.46c-2.31,0-4.26,0.83-5.84,2.49
						c-1.59,1.65-2.39,3.67-2.39,6.05c0,2.36,0.8,4.35,2.39,5.97c1.59,1.62,3.54,2.43,5.85,2.43c1.19,0,2.21-0.19,3.04-0.58
						c0.47-0.19,0.95-0.46,1.45-0.79c0.5-0.33,1.03-0.73,1.58-1.2v4.09c-1.94,1.1-3.98,1.65-6.11,1.65c-3.21,0-5.95-1.12-8.23-3.36
						c-2.26-2.26-3.39-4.99-3.39-8.18c0-2.86,0.95-5.41,2.84-7.66c2.33-2.75,5.34-4.12,9.04-4.12
						C489.35,285.68,491.3,286.22,493.19,287.32z"/>
					<path class="st4" d="M496.2,297.25c0-3.16,1.16-5.88,3.48-8.15c2.31-2.27,5.08-3.41,8.33-3.41c3.2,0,5.95,1.14,8.24,3.43
						c2.3,2.29,3.45,5.04,3.45,8.25c0,3.23-1.15,5.97-3.47,8.22c-2.32,2.26-5.12,3.39-8.4,3.39c-2.9,0-5.51-1-7.82-3.01
						C497.47,303.76,496.2,300.85,496.2,297.25z M499.62,297.29c0,2.49,0.83,4.53,2.5,6.13c1.66,1.6,3.58,2.4,5.75,2.4
						c2.36,0,4.35-0.82,5.97-2.45c1.62-1.65,2.43-3.66,2.43-6.03c0-2.4-0.8-4.41-2.4-6.03c-1.59-1.63-3.56-2.44-5.91-2.44
						c-2.34,0-4.31,0.81-5.93,2.44C500.43,292.93,499.62,294.92,499.62,297.29z"/>
					<path class="st4" d="M544.72,296.88h9.29v0.74c0,1.69-0.2,3.18-0.6,4.48c-0.39,1.2-1.04,2.33-1.97,3.38
						c-2.09,2.35-4.74,3.52-7.96,3.52c-3.14,0-5.84-1.14-8.08-3.41c-2.24-2.28-3.36-5.02-3.36-8.21c0-3.26,1.14-6.03,3.42-8.3
						c2.28-2.28,5.06-3.42,8.33-3.42c1.76,0,3.4,0.36,4.92,1.08c1.46,0.72,2.89,1.88,4.3,3.49l-2.42,2.31
						c-1.84-2.46-4.09-3.68-6.74-3.68c-2.38,0-4.37,0.82-5.98,2.46c-1.61,1.61-2.42,3.63-2.42,6.06c0,2.5,0.9,4.57,2.69,6.19
						c1.68,1.5,3.5,2.26,5.46,2.26c1.67,0,3.17-0.56,4.5-1.69c1.33-1.13,2.07-2.49,2.23-4.08h-5.6V296.88z"/>
					<path class="st4" d="M570.46,303.13h-9.62l-2.5,5.46h-3.65l11.12-23.89l10.73,23.89h-3.71L570.46,303.13z M569.08,299.94
						l-3.33-7.64l-3.49,7.64H569.08z"/>
					<path class="st4" d="M578.71,286.11l6.22,15.58l6.3-15.58h3.71l-10.09,24.17L575,286.11H578.71z"/>
					<path class="st4" d="M601.13,286.11v22.48h-3.39v-22.48H601.13z"/>
					<path class="st4" d="M606.53,308.59v-22.48h4.72c2.26,0,4.05,0.22,5.36,0.67c1.41,0.44,2.68,1.18,3.83,2.23
						c2.32,2.12,3.48,4.9,3.48,8.34c0,3.45-1.21,6.25-3.62,8.38c-1.21,1.07-2.49,1.81-3.81,2.23c-1.24,0.42-3,0.63-5.28,0.63H606.53
						z M609.92,305.4h1.53c1.52,0,2.79-0.16,3.8-0.48c1.01-0.34,1.92-0.88,2.74-1.62c1.67-1.52,2.5-3.51,2.5-5.95
						c0-2.46-0.82-4.46-2.47-6c-1.48-1.37-3.67-2.05-6.57-2.05h-1.53V305.4z"/>
					<path class="st4" d="M631.57,286.11v22.48h-3.39v-22.48H631.57z"/>
					<path class="st4" d="M650.18,303.13h-9.62l-2.5,5.46h-3.65l11.12-23.89l10.73,23.89h-3.71L650.18,303.13z M648.79,299.94
						l-3.33-7.64l-3.49,7.64H648.79z"/>
				</g>
			</g>
		</g>
	</g>
</g>
</svg>
